<svg width="23" height="25" viewBox="0 0 23 25" fill="none" xmlns="http://www.w3.org/2000/svg">
<path d="M0 13.5V11.5C0 10.9479 0.169271 10.4766 0.507812 10.0859C0.846354 9.69531 1.28646 9.5 1.82812 9.5H12.8281L8.25 4.90625C7.85417 4.53125 7.65625 4.0625 7.65625 3.5C7.65625 2.9375 7.85417 2.46875 8.25 2.09375L9.42188 0.90625C9.80729 0.520834 10.276 0.328125 10.8281 0.328125C11.3698 0.328125 11.8438 0.520834 12.25 0.90625L22.4219 11.0938C22.8073 11.4792 23 11.9479 23 12.5C23 13.0417 22.8073 13.5156 22.4219 13.9219L12.25 24.0781C11.8542 24.474 11.3802 24.6719 10.8281 24.6719C10.2865 24.6719 9.81771 24.474 9.42188 24.0781L8.25 22.9219C7.85417 22.526 7.65625 22.0521 7.65625 21.5C7.65625 20.9479 7.85417 20.474 8.25 20.0781L12.8281 15.5H1.82812C1.28646 15.5 0.846354 15.3047 0.507812 14.9141C0.169271 14.5234 0 14.0521 0 13.5Z" fill="white"/>
</svg>
