<svg width="350" height="263" viewBox="0 0 350 263" fill="none" xmlns="http://www.w3.org/2000/svg">
<path fill-rule="evenodd" clip-rule="evenodd" d="M119.629 121.266C120.702 132.122 121.775 142.979 122.848 153.835C128.691 150.495 134.534 147.154 140.377 143.814V175.047C140.377 175.622 140.036 177.598 140.377 178.096C140.666 178.518 142.807 178.531 143.313 178.602C146.617 179.065 149.928 179.478 153.245 179.844C161.985 180.811 171.339 182.197 180.112 181.086C187.739 180.12 195.132 177.402 202.1 174.24C204.546 173.13 206.958 171.941 209.325 170.671C209.827 170.402 211.649 169.767 211.922 169.219C212.145 168.771 211.622 167.198 211.552 166.727C211.258 164.744 210.963 162.76 210.669 160.777L206.557 133.077L214.325 140.848C214.933 141.457 216.089 143.186 216.931 143.456C217.548 143.654 219.077 143.041 219.688 142.924C224.086 142.074 228.484 141.225 232.883 140.376C233.908 140.178 236.217 140.186 237.081 139.565C237.546 139.231 237.568 138.551 237.732 137.907C238.805 133.696 239.878 129.486 240.951 125.275C241.144 124.516 242.222 122.125 241.948 121.361C241.849 121.087 241.374 120.9 241.083 120.722C234.444 116.66 227.805 112.597 221.167 108.534C217.53 106.309 213.893 104.084 210.257 101.858C208.734 100.926 206.862 99.2463 205.136 98.7248C204.065 98.4009 202.506 98.6436 201.397 98.6117C199.144 98.5473 196.891 98.4829 194.637 98.4185C194.285 98.4084 193.049 98.1565 192.752 98.3648C192.505 98.538 192.607 98.7796 192.526 99.1926C192.328 100.201 192.327 101.289 192.229 102.313C192.151 103.134 192.306 104.641 191.937 105.385C191.701 105.86 192 105.671 191.681 105.901C191.3 106.174 190.086 106.086 189.634 106.139C187.426 106.396 185.218 106.653 183.01 106.91C180.385 107.215 177.73 107.788 175.093 107.524C171.094 107.124 166.784 107.144 162.857 106.3C161.837 106.081 161.469 105.505 160.682 104.717C159.146 103.181 157.626 101.626 156.073 100.105C155.312 99.3601 155.637 99.4864 154.853 99.7692C153.87 100.123 152.872 100.978 151.982 101.521C148.572 103.602 145.162 105.683 141.752 107.765L120.932 120.471C120.497 120.736 120.063 121.001 119.629 121.266Z" fill="#F0D8B6"/>
<path fill-rule="evenodd" clip-rule="evenodd" d="M318.765 122.616C314.473 138.94 305.841 156.741 288.451 161.944C284.223 163.209 280.11 164.164 275.719 163.682C275.301 163.636 274.951 163.695 274.554 163.703C273.842 163.716 274.457 163.973 273.658 163.726C273.035 163.533 272.452 163.051 271.803 162.838C270.077 162.272 268.238 162.163 266.484 161.706C262.175 160.583 257.734 159.196 253.559 157.647C251.593 156.918 249.786 155.902 247.936 154.925C246.056 153.933 244.064 153.316 242.163 152.406C240.661 151.686 238.087 150.747 237.031 149.397C235.904 147.958 237.463 144.892 237.908 143.361C239.423 138.153 241.226 133.02 242.365 127.708C246.296 132.272 251.751 135.099 257.399 136.922C260.463 137.911 263.616 138.626 266.803 139.074C269.697 139.48 272.819 139.971 275.72 139.395C277.91 138.959 280.659 137.951 282.223 136.276C282.781 135.678 283.45 134.582 283.138 133.714C282.741 132.611 281.584 133.13 280.958 132.308C280.413 131.591 280.498 129.915 280.324 129.043C280.017 127.498 279.595 125.996 279.079 124.51C278.079 121.623 276.832 118.73 276.533 115.659C276.274 112.994 276.879 110.474 278.206 108.162C278.833 107.069 280.407 104.095 281.944 104.218C283.632 104.354 281.356 111.48 281.282 112.933C280.987 118.695 281.758 124.835 284.709 129.886C285.839 131.82 287.474 134.071 289.886 134.311C292.442 134.564 294.503 132.55 295.719 130.512C298.687 125.539 297.191 118.716 295.688 113.504C293.844 107.109 289.031 102.702 285.988 96.959C290.532 97.4166 292.964 100.308 295.296 103.977C297.863 108.015 299.861 112.865 300.847 117.564C301.344 119.939 301.001 122.323 301.004 124.72C301.005 125.517 301.005 128.456 302.301 128.34C303.686 128.216 304.161 124.902 304.365 123.891C304.832 121.572 305.337 119.252 305.743 116.922C306.461 112.798 306.78 108.575 307.639 104.481C307.784 103.788 308.074 101.868 309.108 102.386C309.905 102.786 309.777 105.756 309.807 106.446C309.878 108.148 309.979 109.849 309.992 111.552C310.013 114.076 309.51 116.689 309.757 119.198C309.918 120.837 310.796 122.649 311.885 120.438C312.964 118.245 313.184 115.511 313.786 113.153C314.418 110.678 315.071 108.166 316.413 105.967C316.785 105.357 317.185 104.389 318.013 104.676C318.614 104.884 319.058 106.312 319.243 106.816C320.082 109.093 319.94 111.624 319.887 114.007C319.822 116.928 319.509 119.784 318.765 122.616ZM235.076 126.852C234.847 126.778 233.872 126.685 233.631 126.664C233.348 126.639 233.669 126.116 232.984 126.265C233.116 126.594 233.351 126.813 233.689 126.923C232.658 127.272 231.898 126.41 231.193 126.299C230.519 126.192 230.491 126.299 229.825 127.012C229.104 126.131 229.239 126.68 228.647 126.681C228.431 126.681 228.422 127.008 228.071 126.968C227.764 126.934 227.732 126.468 227.551 126.414C226.567 126.115 225.555 127.616 224.44 126.314C224.17 127.669 221.073 125.972 219.881 126.21C218.632 126.459 219.171 126.908 218.162 126.141C217.2 125.41 217.468 125.896 216.349 126.494C216.376 126.48 215.718 126.925 215.779 126.932C215.005 126.841 215.049 126.039 214.068 126.082C213.03 126.127 212.587 126.942 211.637 125.939C211.43 126.69 211.387 126.366 210.901 126.556C210.633 126.619 210.399 126.549 210.198 126.344C210.137 126.551 210.003 126.678 209.796 126.724C209.266 126.772 208.27 126.846 207.789 126.59C207.066 126.206 207.647 126.059 207.146 125.627C206.921 126.817 206.429 126.564 205.391 126.675C204.599 126.76 204.424 126.517 203.668 126.399C202.923 126.282 201.96 126.572 201.233 126.695C200.933 126.746 200.531 126.956 200.226 126.882C199.951 126.816 199.833 126.602 199.668 126.546C199.469 126.479 199.511 126.304 199.166 126.219C198.928 126.161 198.502 126.384 198.265 126.423C196.57 126.698 194.943 126.701 193.326 126.033C194.123 127.435 191.466 126.678 190.992 126.098C190.4 127.027 189.684 126.371 188.49 126.444C187.341 126.514 185.613 126.866 185.147 125.432C185.056 125.724 184.404 126.57 184.144 126.699C183.391 127.073 183.301 126.519 182.6 126.294C181.647 125.987 181.846 126.57 181.255 126.688C180.257 126.888 179.718 126.184 178.836 125.81C178.799 126.392 178.779 126.75 178.277 127.112C177.833 125.49 176.246 127.245 176.518 125.077C175.914 125.47 175.065 125.773 174.893 126.57C175.903 126.291 175.001 126.953 174.958 126.975C174.825 127.044 174.374 126.41 174.269 126.321C174.241 126.62 174.213 126.919 174.184 127.218C173.782 127.017 173.404 126.656 173.078 126.475C172.784 126.312 173.205 125.974 172.708 125.95C172.446 125.938 172.173 126.506 171.898 126.555C171.477 126.628 171.679 126.024 171.504 126.045C171.235 126.075 170.799 126.468 170.596 126.461C169.931 126.436 170.381 126.126 169.874 125.984C168.968 125.73 169.026 126.324 168.375 126.538C166.884 127.028 167.034 124.772 165.518 126.277C165.155 126.637 164.921 127.193 164.424 127.161C163.395 127.097 163.756 125.875 163.965 125.276C164.182 125.383 160.205 127.429 160.237 127.349C160.262 126.858 160.887 126.48 160.328 126.044C159.871 127.027 159.39 127.044 158.336 127.227C157.824 127.316 157.723 127.434 157.175 127.221C156.826 127.085 156.591 126.527 156.244 126.496C156.291 126.501 155.653 126.987 155.556 127.031C154.981 127.29 154.617 126.996 154.058 127.103C153.581 127.194 153.394 127.6 152.92 127.489C152.287 127.34 152.659 126.583 151.788 126.795C151.49 126.867 151.311 127.441 150.842 127.56C150.112 127.745 149.216 127.4 148.443 127.58C147.83 127.723 147.375 127.784 146.839 127.814C146.406 127.838 146.584 127.501 145.786 127.899L145.448 127.045C145.049 127.405 144.65 127.764 144.251 128.124C144.175 127.802 144.127 127.475 144.107 127.145C143.511 127.742 142.762 127.844 141.961 127.898C141.095 127.956 140.449 128.145 139.606 128.304C139.339 128.354 138.653 128.434 138.434 128.341C138.466 128.354 138.023 128.17 138.157 128.205C138.099 128.088 138.046 127.969 137.997 127.848C137.922 127.51 137.68 127.496 137.272 127.803C137.06 127.77 136.65 127.492 136.439 127.561C135.895 127.737 135.969 128.16 135.427 128.098C135.076 128.058 134.896 127.537 134.53 127.502C133.97 127.448 133.484 128.076 132.979 128.213C134.514 127.796 130.988 128.12 132.085 128.148C131.366 128.13 130.62 128.094 129.956 128.417C129.589 128.165 130.034 127.66 129.663 127.452C129.327 127.263 129.301 127.761 129.262 127.773C129.474 127.712 129.368 128.136 129.156 128.212C128.494 128.446 127.965 127.849 127.931 127.257C127.369 128.104 127.211 127.764 126.384 127.816C125.569 127.868 124.866 128.296 124.051 128.288C122.438 128.273 121.343 127.711 120.805 126.268C122.524 126.478 124.253 125.371 125.934 125.631C126.486 125.717 126.831 126.133 127.315 126.059C127.911 125.968 128.328 125.317 129.092 125.246C130.778 125.092 132.44 125.242 134.138 124.983C136.166 124.674 138.282 124.491 140.33 124.641C141.912 124.758 143.193 124.152 144.797 124.035C146.871 123.884 148.963 123.857 151.041 123.748C153.176 123.636 155.474 123.294 157.603 123.403C158.267 123.438 158.839 123.503 159.499 123.463C159.778 123.446 160.042 123.256 160.335 123.285C160.716 123.322 160.88 123.713 161.275 123.699C161.948 123.676 162.666 123.121 163.465 123.106C164.778 123.081 166.086 123.084 167.403 123.009C168.562 122.943 169.804 122.672 170.959 122.687C171.773 122.697 171.974 123.392 172.448 123.464C173.301 123.592 177.617 121.132 177.99 123.34C180.236 121.8 183.249 123.104 185.75 122.815C188.963 122.443 192.234 122.774 195.469 122.642C198.76 122.507 202.146 122.632 205.424 122.943C206.782 123.072 208.094 123.193 209.456 123.114C210.062 123.08 210.764 122.924 211.371 123.065C211.518 123.099 212.644 123.886 212.504 123.908C213.119 123.355 212.703 123.274 213.785 123.246C214.619 123.224 215.408 123.405 216.237 123.454C217.725 123.542 219.225 123.335 220.71 123.381C221.95 123.419 223.162 123.602 224.409 123.611C225.752 123.621 227.339 123.659 228.311 124.744C228.209 124.403 228.106 124.063 228.003 123.722C229.503 123.84 230.985 124.376 232.502 124.125C232.118 124.493 231.729 124.794 231.582 125.334C232.4 125.23 232.953 124.658 233.814 124.653C234.537 124.649 234.688 125.012 235.451 124.543C235.545 125.118 235.639 125.693 235.733 126.268C236.79 126.019 236.096 125.229 236.174 124.517C237.033 124.776 237.76 124.479 237.422 125.717C237.16 126.672 235.971 127.143 235.076 126.852ZM233.59 137.487C233.222 138.525 230.033 137.932 229.279 137.822C228.305 137.681 227.19 137.457 226.293 137.345C226.186 137.202 226.057 137.08 225.906 136.979C225.794 137.137 225.651 137.249 225.478 137.314C225.066 137.405 225.065 137.831 224.524 137.736C224.499 138.367 224.935 138.008 225.27 138.237C224.427 138.804 224.812 138.152 224.339 138.162C224.222 137.995 224.058 137.93 223.849 137.966C223.582 138.035 223.336 138.149 223.111 138.309C222.9 138.532 222.72 138.544 222.569 138.344C222.425 138.199 222.249 138.109 222.041 138.075C221.21 138.21 220.978 138.58 220.042 138.52C218.704 138.433 217.257 138.786 215.941 138.6C215.125 138.485 213.762 137.201 213.391 138.453C212.827 137.525 211.928 136.893 211.389 135.945C213.904 135.799 216.419 135.626 218.937 135.535C221.142 135.455 223.553 135.703 225.614 135.599C227.544 135.502 229.587 135.288 231.558 135.112C233.647 134.925 234.338 135.384 233.59 137.487ZM167.957 137.64C168.87 137.893 169.74 137.319 170.626 137.501C170.919 137.561 171.525 138.095 171.659 138.105C171.903 138.125 172.62 137.6 172.927 137.53C174.873 137.086 177.231 137.134 179.176 137.406C180.207 137.55 180.365 137.078 181.265 136.848C182.2 136.609 183.53 136.793 184.515 136.727C186.832 136.572 189.148 136.683 191.449 136.513C193.812 136.339 196.162 136.244 198.526 136.122C200.136 136.039 204.005 135.119 205.34 136.317C206.44 137.304 205.023 139.018 203.922 139.41C203.099 139.702 202.704 139.086 202.093 139.145C201.397 139.212 201.64 140.036 201.019 139.272C200.634 140.031 198.215 139.707 197.522 139.758C196.011 139.867 194.733 140.171 193.705 138.759C193.774 139.166 193.844 139.573 193.914 139.98C192.55 139.25 191.087 139.484 189.903 139.739C189.317 139.865 187.518 140.735 186.883 140.36C186.446 140.102 187.216 139.66 186.479 139.439C186.092 139.324 185.425 139.966 184.953 139.934C183.647 139.844 184.018 138.964 182.735 140.084C182.3 139.707 182.155 139.067 182.213 138.518C181.28 139.315 181.358 140.642 179.692 140.399C179.071 140.309 178.957 139.674 178.633 139.557C177.943 139.308 177.865 139.756 177.267 140.111C177.042 140.245 176.767 140.461 176.501 140.488C175.956 140.542 175.869 140.291 175.794 140.299C175.431 140.339 174.974 140.524 174.543 140.392C174.157 140.273 174.044 139.59 173.363 139.75C172.711 139.903 172.706 140.347 172.824 141.01C172.181 140.944 171.792 140.585 171.312 140.197C170.826 141.331 169.804 140.391 169.239 141.349C168.502 140.468 168.03 140.71 167.116 139.85C167.162 140.209 167.206 140.568 167.251 140.927C166.538 140.789 166.221 140.286 165.613 140.952C165.022 139.85 163.233 141.42 162.313 140.356C161.904 141.704 159.192 141.381 158.047 141.405C157.032 141.425 156.281 141.342 155.29 141.578C154.413 141.787 153.199 142.003 152.375 141.908C151.837 141.845 151.248 141.746 150.577 141.82C149.61 141.925 148.775 142.426 147.773 142.189C146.265 141.832 145.34 139.847 147.02 138.975C148.17 138.378 150.241 138.599 151.507 138.489C153.604 138.306 155.954 137.923 158.054 138.097C159.691 138.233 161.184 137.842 162.855 137.676C164.114 137.552 166.175 137.328 166.996 138.577C167.311 138.212 167.278 137.452 167.957 137.64ZM145.001 154.741C144.776 153.617 154.363 152.998 155.314 152.925C157.312 152.771 159.315 152.661 161.318 152.61C162.964 152.568 164.5 152.883 166.147 152.629C167.685 152.393 169.541 151.908 170.879 152.999C171.076 151.507 176.847 152.234 177.945 152.238C182.724 152.256 187.297 152.267 191.92 151.97C194.562 151.801 197.368 151.573 200.01 151.705C201.202 151.765 202.162 152.083 203.347 151.807C204.12 151.627 204.953 151.252 205.692 151.782C206.557 152.402 206.927 154.508 206.331 155.387C205.897 156.028 205.513 155.957 204.819 155.846C203.753 155.676 202.961 155.429 201.873 155.863C202.05 155.793 201.145 155.995 201.22 155.989C199.988 156.081 198.299 156.943 197.238 155.95C197.663 156.024 198.281 155.264 197.745 155.201C197.343 155.155 197.087 155.587 196.773 155.732C195.699 156.227 195.149 156.072 194.507 155.033C193.213 156.155 193.074 155.845 192.505 154.463C192.068 154.8 191.974 155.599 191.63 155.86C191.579 155.899 191.79 156.384 191.542 156.364C191.311 156.346 191.236 155.967 191.058 155.937C190.945 155.918 190.886 155.586 190.778 155.566C190.66 155.544 190.539 155.756 190.406 155.75C190.051 155.733 189.034 156.491 189.398 155.427C188.86 156.114 188.628 155.676 188.433 155.051C187.811 155.525 187.19 155.998 186.567 156.472C186.278 155.666 185.78 155.886 185.154 156.167C185.342 155.608 185.224 155.078 184.751 155.467C184.477 155.693 184.292 156.408 184.012 156.711C182.876 155.559 182.463 155.875 180.894 156.025C180.295 156.082 179.551 156.193 179.016 155.83C178.545 155.512 178.279 154.343 177.475 155.287C177.654 155.077 177.373 156.691 177.324 156.947C176.969 156.708 176.667 156.413 176.419 156.063C175.956 156.982 174.741 156.158 173.745 156.345C172.177 156.641 170.56 157.138 169.176 155.969C169.078 156.347 167.943 156.827 167.942 156.842C168.009 156.174 168.43 156.409 167.57 156.282C167.412 156.258 167.233 156.544 167.083 156.575C166.571 156.681 165.972 156.58 165.456 156.566C163.308 156.503 161.342 156.98 159.22 157.153C158.505 157.211 157.657 157.326 156.986 157.056C156.294 156.777 156.313 156.461 155.613 156.64C155.835 156.584 155.176 157.277 155.212 157.251C155.118 157.319 154.725 156.981 154.586 157.007C154.545 157.154 154.505 157.302 154.464 157.45C154.295 157.429 154.126 157.408 153.958 157.388C153.497 157.45 153.081 156.982 152.647 156.966C152.727 156.969 151.478 157.435 151.535 157.463C150.662 157.027 150.913 157.154 149.807 157.419C148.761 157.67 147.72 157.611 146.647 157.768C143.526 158.222 145.385 156.655 145.001 154.741ZM142.245 170.374C141.658 169.54 143.219 169.251 143.718 169.178C144.538 169.057 145.626 169.298 146.173 169.167C147.005 168.969 147.809 168.495 148.746 168.367C149.928 168.205 151.12 168.179 152.308 168.077C152.703 168.043 153.193 167.907 153.578 167.93C154.151 167.964 154.389 168.268 154.851 168.27C155.639 168.274 156.612 167.776 157.42 167.684C158.454 167.566 159.499 167.512 160.538 167.46C162.728 167.351 164.895 167.396 167.084 167.394C168.083 167.392 170.741 166.354 171.239 167.518C171.931 166.636 173.706 166.756 174.696 166.731C176.439 166.686 178.164 166.517 179.906 166.436C181.397 166.367 183.064 166.687 184.528 166.463C185.335 166.339 185.602 166.08 186.518 166.197C187.198 166.284 188.234 165.923 188.818 166.083C188.788 166.074 189.546 166.545 189.31 166.56C189.57 166.544 189.555 166.726 189.842 166.645C190.22 166.538 190.047 166.063 190.829 165.894C192.049 165.63 193.676 165.935 194.944 165.868C196.174 165.802 197.402 165.774 198.633 165.779C199.2 165.782 199.901 165.646 200.452 165.757C200.722 165.811 201.297 166.164 201.525 166.129C202.174 166.027 202.505 165.576 203.382 165.604C204.376 165.635 205.271 165.622 206.26 165.546C207.217 165.473 207.371 165.336 207.845 166.134C208.315 166.925 208.445 167.956 207.579 168.494C208.142 168.457 208.833 169.211 208.171 169.629C207.761 169.887 206.94 169.304 206.45 169.346C205.846 169.398 205.372 169.718 204.715 169.738C204.024 169.759 203.322 169.934 202.641 169.947C201.931 169.961 201.395 169.643 200.721 169.778C200.129 169.898 200.066 170.384 199.353 169.957C198.999 169.744 198.939 168.957 198.455 168.95C197.807 168.94 198.066 169.779 197.693 170.167C197.593 168.968 196.669 170.953 196.301 169.497C195.962 169.98 194.708 170.657 194.101 170.268C193.547 169.914 193.731 169.113 193.5 168.536C193.116 169.573 192.086 170.649 192.179 168.761C191.678 169.378 190.326 169.28 190.665 170.361C190.257 170.353 190.161 169.77 189.817 169.726C189.521 169.688 189.286 169.916 189.241 169.912C189.403 169.926 188.756 170.142 188.746 170.144C189.184 170.054 187.481 169.902 187.771 169.905C187.376 169.902 186.892 170.226 186.43 170.225C186.009 170.224 185.591 170.058 185.175 170.01C184.098 169.887 184.322 170.124 183.646 170.463C183.395 170.588 183.332 170.801 182.977 170.775C182.714 170.755 182.616 170.412 182.586 170.409C182.217 170.371 182.49 170.247 181.917 170.305C181.851 170.418 181.785 170.531 181.72 170.644C181.512 170.91 181.244 170.976 180.914 170.844C180.066 171.026 177.253 171.816 177.529 170.353C177.098 170.564 176.667 170.775 176.236 170.987C176.051 169.807 173.709 171.371 173.186 171.45C172.515 171.551 172.453 171.293 171.818 171.155C171.704 171.131 171.475 171.509 171.206 171.455C170.51 171.314 170.386 171.245 170.267 170.487C169.771 171.417 169.358 171.001 168.458 171.154C168.258 171.188 168.131 171.581 167.845 171.513C167.639 171.464 167.633 171.087 167.492 171.038C167.364 170.994 167.383 170.696 167.194 170.654C166.978 170.605 166.242 171.21 166.031 171.304C165.554 171.514 164.771 171.862 164.306 171.758C163.731 171.629 163.987 171.202 163.174 171.25C161.892 171.325 161.357 172.419 160.56 170.696C160.2 171.386 160.245 171.573 159.667 171.801C159.24 171.969 158.158 171.794 157.595 171.773C155.193 171.684 152.83 172.504 150.448 172.289C149.4 172.195 148.517 171.985 147.46 172.156C146.35 172.337 145.264 172.603 144.137 172.71C143.564 172.764 142.367 172.929 142.086 172.195C141.839 171.549 142.762 171.108 142.245 170.374ZM146.957 196.858C143.84 198.947 141.259 201.799 138.398 204.214C135.529 206.636 133.252 209.328 130.672 212.009C128.287 214.488 126.096 216.833 123.212 218.706C121.387 219.892 119.759 221.351 117.884 222.469C116.48 223.306 114.353 224.407 115.038 221.846C115.74 219.222 117.037 216.57 118.162 214.119C119.762 210.636 121.375 207.184 123.106 203.767C123.757 202.483 124.12 201.204 125.152 200.182C126.275 199.068 127.061 197.615 128.291 196.563C133.463 192.139 141.257 195.557 146.957 196.858ZM156.732 198.358C155.319 199.1 153.737 199.284 152.239 199.775C150.962 200.193 149.775 200.937 148.402 200.992C149.652 200.052 150.725 198.775 152.134 198.061C153.719 197.258 155.158 197.842 156.732 198.358ZM218.779 204.545C213.58 202.787 208.738 200.197 203.674 198.112C202.8 197.752 195.962 195.496 196.101 194.423C200.893 193.543 205.827 192.034 210.63 193.68C214.999 195.177 218.553 198.767 221.935 201.772C222.818 202.556 228.276 206.127 227.787 207.264C227.449 208.053 224.819 207.837 224.198 207.676C223.396 207.467 222.934 206.979 222.305 206.443C221.253 205.547 220.089 204.987 218.779 204.545ZM209.18 175.177C209.97 174.449 210.443 173.344 211.197 172.672C212.167 171.809 213.731 172.229 214.79 172.678C217.97 174.024 220.687 176.287 223.847 177.692C227.349 179.248 230.381 181.328 233.539 183.472C236.426 185.431 239.548 187.053 242.495 188.923C245.498 190.829 248.859 192.068 251.904 193.906C255.002 195.777 258.088 197.656 261.065 199.717C266.374 203.394 271.901 207.169 275.829 212.396C277.847 215.083 279.737 218.13 281.218 221.147C282.565 223.89 284.025 227.697 282.281 230.55C280.605 233.29 277.748 235.448 275.331 237.492C274.415 238.266 273.544 239.207 272.357 239.543C270.914 239.95 269.23 239.838 267.745 239.958C259.808 240.603 252.413 239.994 244.591 238.572C237.049 237.201 229.475 236.433 221.874 235.48C217.587 234.942 213.3 234.316 209.071 233.42C207.263 233.038 205.423 232.596 203.654 232.075C202.109 231.619 200.81 230.616 199.221 230.219C192.479 228.532 184.765 227.887 178.091 225.05C183.997 222.591 190.274 221.105 196.328 219.062C202.699 216.911 208.922 215.106 215.638 214.495C219.093 214.18 222.186 213.296 225.51 212.371C228.678 211.489 231.985 211.219 235.239 210.823C236.686 210.648 240.816 210.911 241.295 209.016C242.009 206.194 237.952 205.869 236.222 206.122C233.768 206.48 231.745 207.093 229.867 205.077C227.949 203.017 226.086 200.909 224.134 198.875C220.514 195.104 216.783 190.744 211.667 189.052C205.424 186.988 198.186 188.947 191.957 190.121C185.379 191.36 178.811 192.547 172.355 194.349C169.682 195.095 166.234 196.738 163.46 196.475C160.725 196.214 157.628 195.765 154.986 194.975C153.791 194.618 152.808 193.956 151.738 193.338C150.347 192.535 148.823 192.02 147.346 191.396C144.361 190.133 141.45 188.97 138.23 188.474C135.517 188.056 132.637 187.808 130.008 188.761C127.43 189.696 125.145 191.599 123.346 193.631C121.391 195.84 119.776 198.315 118.174 200.783C117.405 201.967 116.467 203.001 115.67 204.158C115.001 205.131 114.611 206.211 113.903 207.156C112.32 209.27 111.245 211.975 110.285 214.434C109.219 217.166 108.034 220.415 108.289 223.387C108.385 224.51 108.486 225.998 108.919 227.04C109.471 228.364 110.258 228.331 111.391 228.83C113.339 229.689 113.886 232.061 116.403 231.599C118.764 231.165 120.811 229.216 122.534 227.662C124.779 225.637 126.928 223.502 129.077 221.375C131.281 219.192 133.454 216.771 135.208 214.202C135.898 213.191 136.436 212.049 137.252 211.129C138.291 209.956 139.458 209.815 140.869 209.348C153.207 205.264 165.606 201.324 178.329 198.627C181.377 197.981 184.45 197.147 187.445 196.287C190.621 195.375 192.266 196.339 194.887 198.075C200.363 201.703 206.835 204.258 212.933 206.625C214.853 207.37 217.91 207.417 219.411 208.887C210.514 210.246 202.036 212.86 193.455 215.464C189.224 216.747 184.945 217.86 180.698 219.087C176.449 220.315 172.363 221.906 168.173 223.291C164.003 224.668 159.596 225.23 155.385 226.501C151.087 227.798 146.807 228.69 142.395 229.479C137.941 230.275 133.517 231.194 129.047 231.907C127 232.234 124.954 232.572 122.93 233.021C120.95 233.461 119.037 234.513 117.046 234.757C108.158 235.847 99.4438 238.274 90.59 239.647C83.9791 240.671 72.4781 242.1 68.1912 235.455C63.8803 228.773 69.1691 220.977 73.8879 216.199C76.8204 213.229 80.1159 210.616 83.5733 208.291C87.2735 205.802 90.8335 203.115 94.5344 200.631C102.91 195.008 111.992 190.422 120.99 185.903C125.309 183.734 129.482 181.409 133.683 179.029C135.768 177.847 136.923 179.753 138.571 181.049C139.867 182.068 142.248 184.58 144.062 183.419C144.132 183.837 144.202 184.255 144.271 184.674C144.803 184.431 145.334 184.189 145.866 183.946C146.223 184.884 146.181 185.466 147.178 185.958C147.79 186.261 149.096 186.625 149.68 186.092C149.799 186.463 149.918 186.833 150.038 187.203C150.548 187.164 150.646 185.701 150.743 185.359C151.617 186.638 152.827 187.708 154.364 188.07C154.371 187.986 154.114 186.935 154.125 186.928C154.611 186.63 155.225 187.907 155.482 188.181C156.337 189.087 156.847 188.947 157.791 188.215C157.86 188.29 158.18 189.125 158.226 189.11C158.431 189.045 158.819 188.305 158.861 188.237C158.802 189.211 160.679 189.408 161.342 189.199C161.193 188.913 161.044 188.628 160.896 188.342C163.205 188.034 164.111 190.491 166.327 190.366C167.965 190.274 166.651 189.915 167.578 189.212C168.388 188.598 168.533 189.941 168.612 189.899C168.767 189.737 168.886 189.55 168.971 189.34C169.271 190.49 171.658 191.523 171.411 189.631C172.35 190.007 173.016 190.631 174.055 190.763C175.318 190.924 176.667 190.655 177.927 190.55C180.642 190.324 183.2 189.769 185.647 188.523C187.098 187.784 188.643 187.114 190.006 186.223C191.147 185.477 193.313 183.212 194.832 184.187C194.443 183.037 196.275 184.103 196.334 182.622C196.628 182.844 196.922 183.066 197.216 183.288C197.393 182.901 197.344 182.29 197.58 181.952C197.905 181.488 198.063 181.761 198.34 181.5C198.649 181.208 198.92 180.426 199.291 180.203C199.673 179.974 200.124 180.247 200.535 180.047C201.162 179.742 203.858 176.764 203.401 179.316C204.561 178.921 203.667 178.56 203.812 177.786C204.102 176.235 204.81 177.352 205.515 177.487C206.67 177.708 206.647 176.752 207.29 176.057C207.878 175.422 208.983 175.138 208.603 174.036C209.037 174.271 209.13 174.731 209.18 175.177ZM139.585 142.053C138.675 143.068 137.994 142.634 136.983 142.485C136.875 142.122 136.69 142.071 136.428 142.334C136.129 142.506 135.807 142.62 135.462 142.674C134.633 142.879 133.771 142.792 132.96 143.102C132.983 142.83 133.269 142.346 133.086 142.07C132.233 142.661 131.704 143.037 130.656 143.048C129.808 143.057 128.318 142.407 127.613 143.184C127.591 142.882 127.569 142.579 127.548 142.277C127.203 142.449 126.903 142.68 126.647 142.969C126.599 142.521 126.572 142.182 126.276 141.82C125.715 142.976 125.101 143.003 124.012 142.562C124.164 142.623 122.921 141.893 122.969 142.096C122.576 140.437 128.78 140.574 129.431 140.508C131.058 140.343 132.684 140.248 134.313 140.098C135.858 139.955 137.011 139.714 138.081 141.005C137.604 139.14 142.112 139.233 139.585 142.053ZM68.4522 113.124C68.6231 115.944 69.2495 118.942 68.1551 121.656C67.2752 123.838 65.52 126.302 63.6293 127.726C59.7579 130.641 56.4764 127.074 55.9376 123.153C55.3759 119.064 56.4892 114.068 60.0035 111.546C62.1033 110.04 64.1367 110.144 66.5544 110.64C67.1221 110.756 68.0439 110.711 68.3685 111.277C68.4447 111.409 68.3764 113.122 68.4522 113.124ZM119.871 150.698C119.202 151.036 118.502 151.234 117.913 151.694C117.708 151.854 117.638 152.218 117.421 152.352C117.025 152.597 116.46 152.435 116.048 152.637C115.366 152.971 114.877 153.449 114.066 153.757C112.862 154.214 111.806 154.841 110.668 155.436C108.771 156.426 106.736 157.277 104.754 158.083C103.753 158.49 100.985 159.284 101.081 160.752C100.857 160.812 100.628 160.322 100.161 160.361C99.5192 160.414 98.6715 161.158 98.0054 161.341C96.7594 161.682 95.7947 161.713 95.7947 163.304C95.3982 163.034 95.2974 162.374 94.7696 162.286C94.1758 162.187 93.9259 162.829 93.4507 163.029C92.8911 163.264 92.1954 163.039 91.6412 163.289C91.3988 163.546 91.1295 163.77 90.8331 163.961C90.5317 163.996 90.2318 163.987 89.9332 163.933C88.7569 164.183 87.6743 164.627 86.4951 164.857C85.346 165.082 84.559 165.163 85.042 166.525C83.8128 166.766 83.5125 165.459 82.1256 165.937C80.4255 166.522 78.8366 166.945 77.0618 167.302C76.1568 167.484 75.2111 167.891 74.2994 167.986C73.649 168.055 73.0419 167.821 72.4016 167.894C71.6296 167.981 71.0093 168.339 70.2106 168.352C69.4529 168.366 68.6574 168.229 67.9134 168.095C68.0185 168.396 68.1501 168.684 68.3081 168.959C67.7936 168.851 67.5562 168.232 67.12 168.14C66.6623 168.044 66.2522 168.517 65.8711 168.412C65.7088 168.367 65.8167 167.866 65.5264 167.77C65.2618 167.683 65.1503 167.786 64.8879 167.745C64.8003 167.731 63.7026 167.672 63.5278 167.764C63.2221 167.927 63.5314 168.231 63.4706 168.276C62.4384 169.041 62.4258 168.628 61.9657 167.829C61.2899 166.655 60.4751 167.396 59.2469 167.19C57.8783 166.961 56.7999 167.566 55.4527 167.48C53.9997 167.387 52.2921 166.298 51.0074 165.662C48.2333 164.288 45.5281 162.988 43.1984 160.908C38.6441 156.841 34.9389 151.839 32.7543 146.113C30.407 139.961 29.9623 133.545 30.1507 127.019C30.264 123.094 30.5776 119.171 31.1951 115.292C31.6202 112.623 31.7092 107.882 34.7118 106.667C35.2281 112.914 33.5992 119.281 34.6264 125.488C34.9356 127.358 35.6901 129.849 37.1177 131.234C39.2315 133.283 39.726 130.32 39.9173 128.684C40.273 125.644 40.9341 122.621 41.4021 119.596C41.8698 116.572 42.2001 113.514 42.8505 110.521C43.0876 109.43 44.9997 101.441 46.403 101.819C46.1191 107.631 45.3651 113.344 45.3354 119.177C45.3236 121.517 45.1145 123.989 45.4516 126.313C45.625 127.509 46.7123 131.019 48.5822 130.727C50.3127 130.456 48.4103 127.983 48.2487 127.03C47.8207 124.506 48.3663 121.366 48.7653 118.861C49.5204 114.12 51.2052 109.265 53.9589 105.303C56.4252 101.756 60.2227 98.3789 64.7974 99.0044C66.7521 99.2719 68.277 99.7583 69.2591 101.546C70.0296 102.95 73.0652 104.544 71.3061 106.301C69.7046 107.901 67.1146 106.621 65.3344 106.239C63.1549 105.772 60.8191 106.334 58.9963 107.614C55.8689 109.809 54.0866 113.733 53.5049 117.414C52.7208 122.376 54.8167 135.366 62.5363 132.455C67.6645 130.521 71.527 123.563 71.0965 118.237C70.9239 116.105 70.0919 112.057 73.0362 111.482C76.8083 110.744 77.341 114.91 76.9591 117.617C76.4039 121.555 74.3266 125.217 71.95 128.331C69.8788 131.044 67.4697 132.741 64.9772 134.982C64.2393 135.646 62.3572 137.137 62.6733 138.371C63.0197 139.724 65.9776 140.108 67.1622 140.331C73.0215 141.43 79.6292 140.419 85.4786 139.651C97.5009 138.074 109.365 134.189 119.223 127.047C119.622 131.466 120.124 135.871 120.308 140.306C120.398 142.459 120.421 144.643 120.667 146.784C120.818 148.102 121.365 149.942 119.871 150.698ZM86.5351 166.097C86.0632 166.344 86.5734 164.848 86.4422 165.343C87.1472 165.596 87.1784 165.847 86.5351 166.097ZM136.407 112.614C137.156 111.787 139.203 109.818 139.853 111.686C140.095 110.89 140.126 109.711 141.059 110.786C141.431 109.465 145.529 109.589 146.544 109.53C149.795 109.344 153.058 109.245 156.297 108.921C162.953 108.257 169.725 108.599 176.405 108.578C177.851 108.573 179.294 108.494 180.73 108.704C182.116 108.907 183.572 109.477 184.984 109.269C186.24 109.084 187.063 108.737 188.356 108.885C189.903 109.063 191.404 109.189 192.964 109.183C199.866 109.158 206.764 109.438 213.667 109.449C215.012 109.451 216.624 109.188 217.886 109.76C218.354 109.973 218.865 110.679 219.222 110.756C219.631 110.845 219.388 110.205 219.936 110.494C220.67 110.881 220.102 112.07 219.617 112.259C219.907 112.146 219.093 112.035 219.174 112.03C218.788 112.051 218.458 112.348 218.043 112.329C217.411 112.302 216.882 111.915 216.372 111.575C216.364 111.714 216.644 112.64 216.324 112.687C216.049 112.727 215.791 111.814 215.764 111.602C214.22 112.967 212.583 112.206 210.667 112.379C209.308 112.502 206.474 113.41 205.526 111.988C205.486 112.291 205.365 112.555 205.163 112.782C204.892 113.196 204.658 113.161 204.459 112.676C204.393 112.679 203.732 112.823 203.719 112.822C203.255 112.785 202.652 112.618 202.179 112.577C201.448 112.515 201.583 113.048 201 113.057C200.682 113.061 199.87 112.601 199.315 112.572C198.354 112.522 197.372 112.93 196.424 112.807C195.771 112.722 195.181 112.189 194.541 112.169C193.743 112.142 193.484 112.752 192.852 111.895C192.722 111.86 192.642 112.364 192.591 112.373C192.603 112.371 191.989 112.462 191.916 112.49C191.79 112.538 191.299 112.764 191.15 112.766C190.827 112.772 190.652 112.541 190.309 112.535C189.743 112.526 187.936 113.025 187.987 111.976C185.967 112.726 184.243 112.433 182.17 112.611C181.219 112.692 180.621 112.565 179.716 112.39C178.583 112.17 177.83 112.446 176.7 112.502C175.613 112.555 175.271 112.094 174.354 111.679C173.992 111.515 173.754 111.299 173.31 111.39C173.057 111.442 173.237 111.868 173.162 111.898C172.772 112.048 172.5 111.889 171.966 111.925C170.98 111.993 170.587 112.819 169.573 112.043C169.91 112.002 170.247 111.961 170.584 111.92C169.615 111.508 168.335 111.298 168.57 112.797C167.743 112.681 168.459 112.117 168.052 111.915C167.646 111.714 167.191 112.051 166.679 112.218C165.327 112.657 164.199 112.439 162.79 112.36C161.188 112.271 157.44 113.58 156.293 111.88C156.259 112.238 155.875 113.236 155.364 113.189C155.198 113.174 155.662 112.115 155.715 112.002C155.451 112.564 154.251 112.67 153.659 112.961C153.726 112.66 153.792 112.358 153.858 112.057C153.309 112.643 153.042 112.285 152.395 112.481C152.113 112.567 151.704 113.151 151.462 113.186C151.181 112.859 150.827 112.718 150.4 112.764C150.117 112.693 149.833 112.679 149.55 112.722C148.416 112.805 147.381 113.436 146.253 113.006C145.276 112.633 144.898 111.674 144.316 113.2C144.162 112.929 144.009 112.658 143.856 112.386C143.667 112.681 143.478 112.975 143.289 113.269C142.55 112.784 142.504 112.503 141.654 112.682C141.454 112.761 141.25 112.75 141.04 112.648C140.99 112.797 140.94 112.947 140.89 113.096C140.87 113.471 140.759 113.595 140.556 113.468C140.386 113.406 140.232 113.313 140.095 113.189C139.533 113.232 138.814 113.38 138.21 113.298C137.977 113.267 136.516 112.494 136.407 112.614ZM153.626 102.518C153.692 102.62 153.759 102.721 153.825 102.823C152.911 103.307 152.697 103.029 152.602 102.059C153.048 102.067 153.125 102.854 153.626 102.518ZM154.192 101.948C154.632 102.143 155.136 102.525 155.551 102.013C155.83 102.825 153.758 103.934 154.192 101.948ZM157.033 102.307C157.957 102.932 155.741 102.429 155.745 102.431C156.143 102.062 156.572 102.021 157.033 102.307ZM164.977 98.8197C165.293 100.421 166.167 100.375 167.577 99.6309C169.633 98.5453 169.98 96.7675 170.124 94.6446C170.261 92.6092 170.51 91.8213 172.605 92.2463C174.067 92.5429 175.304 92.2936 176.778 92.2527C178.351 92.2093 178.905 92.45 179.032 94.0718C179.159 95.6958 179.447 96.9288 180.623 98.1648C181.819 99.4211 183.414 100.171 184.968 100.874C185.767 101.236 186.517 101.624 187.402 101.703C187.744 101.733 189.527 101.507 189.565 102.072C189.592 102.497 187.123 103.696 186.861 103.839C185.716 104.463 184.574 105.023 183.323 105.401C180.445 106.271 177.393 106.322 174.412 106.269C169.606 106.185 162.964 104.148 160.09 99.8755C161.719 99.5237 163.348 99.1715 164.977 98.8197ZM164.545 84.9538C163.785 84.3143 163.293 83.3485 162.661 82.5914C162.342 82.2094 162.109 82.0878 161.806 81.8967C161.486 81.6955 161.306 81.9802 161.04 81.5072C160.352 80.2845 162.476 78.5641 160.223 78.0935C159.461 77.9339 157.627 78.539 157.405 77.4451C157.09 75.8982 160.037 75.7971 160.73 75.012C162.109 73.4511 161.173 70.805 162.013 69.0042C162.807 67.2984 164.859 66.9954 166.479 66.4829C168.735 65.7692 171.019 65.3553 173.31 64.7839C174.912 64.3848 177.573 62.7805 179.059 64.1979C176.767 64.7079 178.099 65.5084 179.627 65.9603C181.358 66.4725 183.193 66.6722 184.986 66.815C186.832 66.9617 188.714 66.9896 190.538 66.6209C192.225 66.2799 194.109 64.8108 195.878 65.1871C194.896 66.8968 191.973 67.8307 190.196 68.2786C189.291 68.5067 188.711 68.4354 188.833 69.5662C188.95 70.6622 189.901 71.7612 190.116 72.9027C190.4 74.4137 190.152 75.8021 189.615 77.2231C189.087 78.6211 188.964 78.8036 189.426 80.1396C190.145 82.2198 188.599 84.5188 187.171 86.0294C181.394 92.1373 170.338 89.8236 164.545 84.9538ZM179.225 48.4495C179.228 48.4882 179.248 48.5119 179.225 48.4495V48.4495ZM181.024 63.8636C180.784 64.043 179.405 64.4188 179.462 63.8787C179.54 63.1549 180.783 63.4164 181.024 63.8636ZM184.168 49.2432C183.844 49.0015 182.938 49.1008 183.601 48.1844C183.816 48.5876 183.992 48.9154 184.168 49.2432ZM162.41 43.4506C162.823 42.3764 163.28 41.3772 163.466 40.2338C163.58 39.5294 163.352 38.725 164.335 38.6145C163.083 38.0672 163.07 35.9071 162.996 34.7873C162.894 33.2451 162.408 31.1804 163.085 29.7451C163.779 28.2706 164.716 28.295 164.998 30.051C165.109 30.7385 164.686 30.9609 164.606 31.4397C164.449 32.3869 164.762 32.1792 165.372 31.4576C165.623 32.1911 165.72 33.2932 166.745 33.2466C166.676 33.0482 166.284 32.6107 166.415 32.3643C166.616 31.9859 167.601 32.5641 167.725 32.6516C168.624 33.2814 168.819 33.8563 168.178 34.6507C169.065 34.7465 168.321 35.5247 168.893 35.7277C169.767 36.0373 169.181 34.5707 169.087 34.3129C169.619 34.5209 169.797 34.7583 170.134 35.1794C170.331 35.4699 170.512 35.7715 170.674 36.0835C170.855 36.6531 171.227 36.7958 171.792 36.5117C172.924 36.8675 174.487 36.8119 175.502 37.4338C175.965 37.7179 176.132 38.3394 176.519 38.5754C176.955 38.8412 177.538 38.7207 178.006 38.8875C177.835 39.277 177.974 39.4878 178.422 39.5208C178.769 39.5528 179.106 39.6313 179.432 39.7561C179.675 39.5721 179.941 39.4269 180.227 39.3211C180.419 39.6607 180.691 39.7446 181.043 39.5736C182.086 39.7694 182.588 40.165 183.251 40.7564C183.847 41.2872 183.362 41.3302 184.015 41.2833C184.277 41.2642 184.736 40.8188 185.336 40.9056C185.681 40.973 186.014 41.0795 186.334 41.2252C186.68 41.5221 187.048 41.5594 187.437 41.3374C188.069 41.6469 188.132 42.1953 188.902 42.2703C189.755 42.3535 189.48 41.289 190.066 42.7903C190.854 41.1986 191.142 43.7343 191.956 43.9391C192.799 44.1514 192.89 43.4667 193.612 44.2149C193.828 44.439 193.816 44.8095 194.059 45.0473C194.457 45.4365 194.995 45.3586 195.34 45.8894C195.148 45.5932 195.386 46.9392 195.382 46.8947C195.435 47.4887 194.909 48.154 195.988 48.1034C195.976 48.1658 195.458 48.9229 195.356 48.8372C195.332 48.7508 195.311 48.6632 195.294 48.5747C195.178 48.6245 195.127 49.3458 195.148 49.4731C195.24 49.4874 195.277 49.4193 195.261 49.2686C195.083 49.8249 195.351 50.1782 195.01 50.7061C194.792 51.0436 194.195 51.2972 193.878 51.5056C193.113 52.0084 192.363 52.5127 191.617 53.0478C189.876 54.2959 187.927 55.8008 185.734 56.0612C186.836 54.978 193.17 50.879 189.993 49.7023C189.404 49.4842 188.331 49.2776 187.714 49.2317C186.948 49.1747 186.155 49.6144 185.31 49.34C184.29 49.0093 184.674 48.0485 184.051 47.7038C182.727 46.9726 183.04 48.6923 182.623 49.1428C182.186 48.6826 182.279 48.4588 181.589 48.4172C180.887 48.3749 180.72 49.0244 179.902 48.6198C178.774 48.0621 179.371 46.9514 177.771 46.9252C177.798 46.6813 178.03 45.9999 177.725 45.8098C177.313 46.3446 177.632 46.9424 177.25 47.4571C177.059 47.7153 176.644 47.9212 176.341 48.0048C175.632 48.1999 175.531 48.5736 175.646 47.5037C175.121 48.4524 173.509 48.0621 172.55 47.9667C170.992 47.8114 169.335 47.5159 167.841 47.0152C166.459 46.5519 165.721 45.756 164.582 45.0319C164.151 44.7579 163.945 44.8626 163.327 44.6926C162.717 44.5248 162.123 44.1995 162.41 43.4506ZM165.699 26.6538C165.934 26.5118 166.103 28.6311 165.818 29.027C165.296 28.1996 164.37 26.986 165.699 26.6538ZM166.45 25.8085C167.207 25.1224 166.681 26.8945 166.543 27.1918C166.262 27.0118 165.982 26.8317 165.702 26.6517C166.059 26.4318 166.149 26.0821 166.45 25.8085ZM194.997 22.9526C201.988 24.4223 208.914 27.1696 214.521 31.6908C219.628 35.8088 223.232 41.6516 225.253 47.8667C227.351 54.3177 226.646 61.475 221.656 66.4122C219.027 69.0128 215.555 70.5819 212.246 72.113C210.661 72.8464 209.028 73.4576 207.437 74.1742C206.294 74.6888 204.898 75.5123 203.594 75.3696C204.26 74.668 205.225 74.6537 206.03 74.2247C207.003 73.7061 207.798 72.7109 208.637 72C209.47 71.2942 211.317 69.0716 212.596 69.6096C212.419 68.4257 213.765 67.8759 214.372 67.0951C215.014 66.2691 215.06 65.3033 216.242 65.0328C214.972 64.0372 215.361 62.1593 215.637 60.804C215.991 59.0706 216.154 57.4793 216.294 55.7154C216.545 52.5352 216.747 48.4843 214.993 45.6886C214.424 44.7808 213.7 43.9466 213.192 43.0037C212.58 41.8675 212.715 40.8672 212.715 39.6216C211.596 40.3748 211.36 38.839 210.888 38.0905C210.533 37.5289 210.067 37.2151 209.953 36.5085C209.869 35.9942 210.426 35.9074 210.121 35.3684C209.747 35.6517 209.597 36.0907 209.408 36.4981C209.062 36.3597 209.47 35.8777 209.272 35.7209C209.266 35.7166 208.599 35.4265 208.632 35.4684C208.203 34.9236 208.065 34.0195 207.855 33.371C207.069 33.7699 207.216 33.7229 206.339 33.0565C206.185 32.9392 205.413 32.4005 205.341 32.2244C205.001 31.401 205.596 31.8887 205.43 31.3776C204.952 29.9097 202.273 30.1873 202.061 27.9877C200.755 28.8187 200.257 27.6412 199.484 26.8038C198.693 25.9459 197.365 25.6159 197.436 24.2552C197.025 24.3961 196.614 24.5367 196.203 24.677C196.417 23.4213 194.555 23.5013 193.881 22.8643C194.255 22.869 194.627 22.8984 194.997 22.9526ZM196.062 100.722C196.71 100.142 196.513 100.914 196.93 100.826C197.286 100.75 197.357 100.48 197.699 100.397C199.107 100.056 201.213 100.485 202.694 100.411C204.41 100.326 207.351 100.683 208.168 102.694C208.661 103.905 207.909 103.493 207.081 103.403C206.439 103.334 205.868 103.464 205.233 103.457C204.919 103.506 204.606 103.501 204.294 103.443C204.142 103.342 204.052 103.201 204.024 103.019C203.14 102.885 202.201 103.409 201.222 103.435C199.916 103.47 198.755 103.219 197.762 102.335C197.367 102.924 197.098 103.216 196.389 103.282C196.37 103.284 195.677 103.004 195.57 102.976C195.428 102.939 195.068 103.238 194.794 103.153C195.28 102.377 195.351 101.359 196.062 100.722ZM285.293 107.721C285.524 106.917 285.717 106.103 285.927 105.294C289.152 108.972 291.974 113.896 293.244 118.613C294.069 121.679 295.353 127.233 291.42 128.814C288.216 130.102 286.43 125.485 285.619 123.212C283.83 118.192 283.83 112.828 285.293 107.721ZM141.008 50.0846C141.049 50.0763 138.92 51.3169 139.622 50.3123C139.903 49.9085 140.972 49.6244 141.446 49.6244L141.008 50.0846ZM138.96 50.6104C138.714 50.818 138.465 51.0232 138.214 51.2255C137.973 50.8438 137.731 50.4622 137.49 50.0806C137.966 49.8798 139.983 49.7292 138.96 50.6104ZM137.459 89.1827C137.014 88.8803 136.66 89.041 136.527 89.5485C136.527 89.0435 136.789 87.8704 137.193 87.7337C137.453 87.6451 136.326 86.3092 136.643 85.9595C137.449 86.4218 136.966 86.8647 137.202 87.4615C137.309 87.7309 137.629 87.9855 137.699 88.1924C137.818 88.5436 138.298 89.7511 137.459 89.1827ZM135.277 86.1765C134.821 86.2934 135.619 87.048 135.619 87.3815C135.618 87.6337 135.316 87.8273 135.191 88.1724C134.921 88.9201 135.386 89.4251 134.62 89.9957C134.62 88.3574 133.523 84.0163 135.632 83.2179C134.603 82.4063 135.448 81.4695 136.254 82.4407C137.029 83.3747 136.535 85.8537 135.277 86.1765ZM134.178 79.7114C133.764 78.2388 132.516 77.7237 131.09 77.8109C131.144 77.057 131.715 75.9699 132.127 77.3289C132.296 76.9272 132.413 76.4032 132.799 76.1371C133.45 78.18 136.692 79.3086 134.673 81.5222C134.508 80.9186 134.348 80.3139 134.178 79.7114ZM130.41 77.9206C122.902 78.4661 112.361 80.027 106.353 74.261C102.435 70.5012 102.644 64.6462 105.81 60.469C107.617 58.0854 110.083 56.4069 112.56 54.808C113.516 54.1908 114.326 53.7834 115.375 53.4286C115.545 53.4104 115.705 53.4484 115.854 53.5427C115.913 53.2888 116.056 53.1008 116.283 52.9782C116.688 52.7608 117.266 52.6834 117.499 52.2322C117.25 53.0793 117.122 53.9516 117.03 54.8281C116.828 54.5921 116.626 54.3561 116.424 54.1201C116.255 55.7165 114.595 54.7503 113.604 54.9497C114.257 55.8549 114.724 56.1838 114.78 57.3803C114.294 56.4808 113.277 55.8894 112.332 55.5996C112.845 57.121 113.208 58.0241 112.691 59.6925C112.067 59.3353 112.025 58.4774 111.267 58.2719C111.067 59.2668 111.032 60.3707 110.776 61.3362C108.837 60.45 109.026 62.8368 109.805 64.0179C110.219 64.6462 110.422 65.3736 110.791 65.9768C111.698 67.4562 111.009 65.2437 112.017 65.3488C111.79 66.9093 111.712 67.0646 112.852 68.2073C113.964 69.3216 114.541 70.8678 115.731 71.9147C116.075 71.4735 115.533 71.0119 115.486 70.5898C116.593 70.7759 117.112 71.8881 118.176 70.9029C118.64 71.8092 119.142 72.8073 120.254 72.9935C119.519 71.594 121.665 72.543 122.216 72.7417C122.633 72.8923 123.381 73.0121 123.542 73.0702C124.449 73.3984 123.827 72.8095 124.377 73.8851C125.185 73.6409 125.49 72.9691 126.457 73.5365C127.243 73.9981 127.244 74.7885 127.424 75.5984C127.611 75.0686 127.8 74.5393 128.007 74.0167C128.218 74.1057 129.103 75.0812 129.007 75.0859C131.078 74.984 131.004 76.2723 130.41 77.9206ZM119.868 51.5113C120.284 51.219 120.792 51.6081 121.259 51.5034C121.905 51.3589 122.272 50.804 122.995 50.7445C122.794 51.3879 122.416 51.3277 122.098 51.833C121.989 52.0052 122.045 52.4183 121.949 52.5173C121.139 53.348 120.86 52.6701 120.033 52.0414C120.105 52.7996 120.251 53.0392 119.538 53.2425C118.893 53.4269 117.827 52.7479 117.502 52.2272C117.776 51.677 119.371 51.8613 119.868 51.5113ZM125.02 50.3263C125.721 50.3934 124.877 52.4657 123.872 50.4554C124.25 50.3729 124.633 50.3299 125.02 50.3263ZM128.625 49.9257C129.731 49.6997 133.419 48.6467 133.829 50.3711C133.903 50.3281 134.177 49.3547 134.305 49.4734C134.815 49.9494 134.872 50.5802 134.833 51.2412C134.216 49.953 134.436 51.0845 134.017 50.9963C133.908 50.973 133.741 51.1774 133.464 51.0931C133.102 50.9823 132.842 50.2094 132.613 49.9476C132.232 50.4927 131.76 51.1946 130.996 51.1473C130.456 51.1139 129.585 49.7202 130.285 51.2459C129.874 51.11 129.399 50.8022 128.941 50.8639C128.429 50.9332 128.162 51.4399 127.682 51.5217C126.618 51.7025 126.457 50.676 125.766 50.1187C126.719 50.0631 127.684 50.1179 128.625 49.9257ZM135.314 49.9092C135.392 49.5556 136.36 49.4128 136.606 49.5251C137.208 49.7987 136.985 50.1599 136.875 50.761C136.428 50.5494 135.982 50.3381 135.536 50.1265C136.202 51.2011 134.995 51.3571 135.314 49.9092ZM322.598 112.85C322.519 110.275 322.445 107.655 321.793 105.148C321.337 103.394 320.217 100.247 318.098 99.943C314.903 99.4835 313.133 105.811 312.238 107.983C312.059 105.426 312.215 102.704 311.251 100.277C310.479 98.3319 308.529 96.4899 306.85 98.674C305.356 100.618 305.068 103.488 304.675 105.826C304.165 108.857 303.859 111.911 303.487 114.96C302.028 112.134 301.773 108.899 300.619 105.962C299.53 103.191 297.818 100.544 296.167 98.079C294.82 96.0656 293.181 94.1726 291.07 92.9417C289.233 91.8704 286.02 90.7116 284.268 92.4909C282.807 93.9753 283.036 95.9619 283.112 97.8352C283.146 98.6694 283.277 99.2414 282.544 99.6618C282.185 99.8684 281.622 99.7615 281.227 99.8719C280.59 100.05 280.101 100.352 279.562 100.754C275.783 103.567 274.041 108.638 273.503 113.16C272.82 118.888 275.049 123.799 276.967 129.04C277.273 129.875 278.243 131.647 278.109 132.58C277.962 133.602 276.682 133.628 275.818 133.649C273.21 133.714 270.483 133.519 267.888 133.276C261.708 132.697 255.533 129.716 250 127.055C248.991 126.569 247.562 126.291 246.739 125.526C245.964 124.808 245.76 123.656 245.091 122.831C243.45 120.808 242.404 119.081 239.988 117.859C237.527 116.615 235.016 115.464 232.615 114.101C229.646 112.415 226.903 110.279 224.058 108.39C218.771 104.882 213.519 101.036 207.913 98.0525C205.308 96.6659 202.397 96.4414 199.693 95.3063C197.059 94.2009 193.826 94.1995 191.078 94.8974C189.739 95.2378 188.828 96.044 187.597 96.5702C186.154 97.1871 184.977 96.5064 183.707 95.77C181.767 94.6453 179.844 92.8126 182.607 91.5993C183.544 91.1875 184.718 91.0315 185.537 90.3842C186.409 89.6945 187.11 88.422 187.82 87.558C189.397 85.6374 190.339 83.4263 192.648 82.232C195.201 80.9111 198.228 80.5517 200.95 79.6884C203.9 78.7534 206.788 77.6416 209.683 76.5499C214.898 74.583 220.32 72.4594 224.068 68.1298C227.301 64.3944 228.709 59.5731 228.579 54.676C228.312 44.665 222.96 34.5051 215.28 28.2459C205.863 20.5707 193.883 18.0114 181.988 18.1455C176.406 18.2087 169.744 18.9407 165.086 22.3389C161.062 25.2741 160.393 30.4079 160.991 35.042C161.234 36.9228 162.064 39.4046 160.74 41.062C160 41.9891 158.67 42.2186 157.672 42.7968C156.417 43.523 155.312 44.2192 153.891 44.6033C147.857 46.2359 141.502 45.6674 135.332 45.577C125.055 45.4264 114.521 48.2142 106.854 55.4697C100.663 61.3283 98.8063 72.3759 106.357 78.0874C112.458 82.7015 122.027 82.194 129.22 81.3892C131.451 81.1392 132.985 80.7762 132.99 83.5106C132.996 86.4974 132.502 89.6192 133.262 92.5515C134.461 97.1695 138.889 97.2796 142.805 96.2851C144.871 95.7604 146.869 94.9713 148.831 94.145C151.709 92.9331 154.347 91.151 157.189 89.9412C159.115 89.1213 160.558 91.7729 162.267 89.9348C162.583 89.5951 162.641 89.0887 163.117 88.9148C163.864 88.6425 165.116 89.5973 165.771 89.8993C166.751 90.3515 167.739 90.684 168.131 91.7729C168.497 92.7914 168.337 94.4111 167.986 95.416C167.223 97.6002 165.17 97.1684 163.295 97.0225C160.025 96.7674 156.777 96.227 153.509 95.9999C150.576 95.7962 147.83 96.6742 145.3 98.1232C139.987 101.166 135.641 106.007 131.034 109.987C128.663 112.036 126.372 114.249 123.793 116.033C122.672 116.809 121.458 117.522 120.484 118.486C119.517 119.442 119.411 120.311 119.08 121.584C118.491 123.849 115.567 124.957 113.739 126.152C111.154 127.843 108.413 129.035 105.516 130.072C99.3783 132.269 93.1929 133.802 86.7768 134.936C83.6355 135.491 80.5202 135.856 77.3481 136.156C74.614 136.414 71.7065 137.257 68.9756 136.584C69.7622 135.305 71.1559 134.538 72.2414 133.55C73.6408 132.276 74.8311 130.767 75.8901 129.203C77.9517 126.158 79.3976 122.891 79.7297 119.198C80.029 115.874 79.6857 111.897 77.6839 109.089C76.9924 108.119 75.6244 107.855 75.0055 106.981C74.3902 106.113 74.6248 104.618 74.288 103.605C73.4302 101.029 70.8849 97.837 68.6449 96.341C66.2147 94.7174 62.6597 94.121 59.8523 94.967C54.6515 96.5343 51.4569 102.103 49.0771 106.603C47.7771 103.863 49.9541 99.7966 47.4145 97.5522C45.2725 95.6589 43.5724 99.3264 42.8559 100.896C39.4929 108.261 38.7291 116.073 37.3201 123.954C36.7459 123.387 37.0401 121.932 37.0941 121.256C37.1946 119.996 37.1853 118.761 37.1878 117.496C37.1946 114.302 37.7874 111.093 37.5157 107.901C37.3587 106.056 36.7716 102.166 34.0961 102.779C31.8272 103.299 30.406 106.496 29.693 108.45C28.6647 111.269 28.4273 114.06 28.4913 117.037C28.5621 120.328 27.9364 123.564 27.7848 126.85C27.4902 133.232 27.7813 139.559 29.609 145.718C32.602 155.805 39.4836 164.185 48.668 169.246C53.7283 172.035 59.3421 173.799 65.1138 174.178C68.2416 174.384 71.261 174.011 74.362 173.687C77.4221 173.367 80.4984 173.219 83.5533 172.844C90.3565 172.008 96.9857 169.85 103.169 166.946C106.424 165.418 109.485 163.541 112.687 161.912C113.972 161.258 114.84 160.44 115.936 159.531C117.023 158.63 117.324 158.559 118.56 158.559C118.197 157.587 119.256 157.288 119.727 156.673C119.7 156.971 119.674 157.269 119.647 157.567C120.006 156.787 120.341 156.795 120.65 157.59C120.956 156.699 121.182 155.784 121.551 154.916C122.962 155.631 122.843 157.332 124.73 156.09C126.285 155.068 127.714 153.862 129.298 152.861C132.907 150.578 136.019 147.609 139.638 145.352C139.638 147.55 139.793 149.766 139.5 151.953C139.221 154.031 138.446 155.974 137.83 157.965C136.694 161.636 136.615 165.561 135.356 169.195C134.835 170.701 133.478 171.96 133.089 173.425C132.693 174.92 133.609 176.118 132.073 177.099C130.991 177.791 129.637 178.084 128.439 178.502C126.61 179.141 124.873 180.042 123.093 180.806C114.743 184.391 106.599 188.042 98.8624 192.862C91.5207 197.436 84.0667 202.16 77.3224 207.592C71.4691 212.306 65.5522 218.402 64.1274 226.092C62.7448 233.552 66.4285 241.559 73.8253 244.016C77.6714 245.293 82.0194 245.135 86.0246 245.19C90.3344 245.25 94.9012 244.209 99.1384 243.456C103.613 242.661 108.012 241.416 112.499 240.706C116.805 240.025 120.755 238.502 124.99 237.563C129.501 236.564 134.128 236.022 138.664 235.123C140.706 234.718 142.707 234.12 144.755 233.746C146.996 233.335 149.263 233.182 151.483 232.638C155.789 231.584 159.911 229.884 164.236 228.903C166.18 228.462 168.095 227.871 170.04 227.459C171.831 227.08 173.226 226.071 175.021 226.899C176.471 227.569 177.627 228.716 179 229.515C180.78 230.552 182.656 231.48 184.512 232.372C188.24 234.165 192.107 235.404 196.005 236.749C200.1 238.163 204.121 239.775 208.363 240.709C212.713 241.666 217.149 241.932 221.528 242.689C230.497 244.239 239.389 244.935 248.493 244.992C253.095 245.021 257.695 244.474 262.286 244.539C266.35 244.596 269.884 245.514 273.6 243.349C279.538 239.89 286.426 234.68 286.28 227.112C286.147 220.258 282.043 213.71 278.194 208.304C273.52 201.738 266.855 197.115 260.323 192.587C253.362 187.761 245.542 184.426 238.226 180.213C234.484 178.059 231.033 175.741 226.969 174.21C225.03 173.479 223.138 172.632 221.221 171.845C219.678 171.212 217.451 170.862 216.131 169.812C215.308 169.157 215.229 168.164 215.011 167.19C214.529 165.034 213.772 162.989 213.039 160.909C211.622 156.894 210.681 152.804 210.072 148.593C209.491 144.578 208.203 140.403 208.87 136.323C213.259 140.576 217.768 144.664 222.258 148.804C223.941 150.356 225.592 151.94 227.284 153.482C228.553 154.64 230.142 156.36 231.912 156.703C234.172 157.142 233.347 154.637 234.899 154.249C235.847 154.012 238.708 156.426 239.458 156.903C244.212 159.927 249.476 161.843 254.705 163.902C260.188 166.06 265.827 167.977 271.726 168.52C277.176 169.023 282.749 168.378 288.008 166.89C298.481 163.928 306.188 156.899 311.843 147.788C318.288 137.406 322.978 125.243 322.598 112.85Z" fill="#032A42"/>
<path fill-rule="evenodd" clip-rule="evenodd" d="M162.532 90.2164C162.53 90.2194 162.514 90.2537 162.514 90.2537C162.534 90.24 162.539 90.2277 162.532 90.2164Z" fill="#032A42"/>
<path fill-rule="evenodd" clip-rule="evenodd" d="M163.037 90.3505C162.998 90.0197 162.913 89.6959 162.783 89.3789C162.437 89.9296 162.126 90.1655 162.582 90.7487C162.733 90.616 162.885 90.4832 163.037 90.3505Z" fill="#032A42"/>
<path fill-rule="evenodd" clip-rule="evenodd" d="M187.188 169.059C187.575 168.646 186.897 168.49 186.64 168.484C186.665 168.928 186.446 169.991 187.051 170.197C186.906 169.795 186.952 169.416 187.188 169.059Z" fill="#032A42"/>
<path fill-rule="evenodd" clip-rule="evenodd" d="M176.957 82.5447C176.291 83.8343 177.763 84.2343 178.615 83.6113C179.257 83.143 179.636 81.949 179.741 81.1829C180.082 78.704 178.351 76.3446 177.488 74.1451C177.265 73.5765 176.959 71.6268 176.241 71.5732C175.415 71.5116 175.354 73.3075 175.344 73.7708C175.312 75.1681 175.681 76.5911 176.114 77.91C176.58 79.3319 177.736 81.0387 176.957 82.5447Z" fill="#032A42"/>
<path fill-rule="evenodd" clip-rule="evenodd" d="M180.127 77.3727C182.689 79.6582 184.738 75.8516 184.559 73.5999C184.515 73.0419 184.139 70.985 183.083 71.7336C182.552 72.1097 183.005 73.3318 182.752 73.8683C181.526 76.4697 180.346 72.4347 179.521 72.1178C178.518 71.7319 178.417 73.0535 178.418 73.7599C178.42 75.1621 179.086 76.444 180.127 77.3727Z" fill="#032A42"/>
<path fill-rule="evenodd" clip-rule="evenodd" d="M170.828 77.7277C171.431 76.7757 172.173 75.4988 172.255 74.3582C172.382 72.5853 171.351 72.7333 170.502 73.9703C169.903 74.844 169.453 76.3261 168.13 75.9577C166.496 75.5035 166.995 73.3025 166.081 72.2565C163.771 75.3646 168.142 81.9641 170.828 77.7277Z" fill="#032A42"/>
<path fill-rule="evenodd" clip-rule="evenodd" d="M174.289 87.2394C175.245 87.4463 177.735 87.3699 176.872 85.9045C175.784 84.0585 172.165 86.779 174.289 87.2394Z" fill="#032A42"/>
<path fill-rule="evenodd" clip-rule="evenodd" d="M207.755 32.1901C207.93 31.6684 207.689 31.5736 207.273 31.1628C206.878 31.5279 207.383 31.912 207.755 32.1901Z" fill="#032A42"/>
<path fill-rule="evenodd" clip-rule="evenodd" d="M225.573 126.688C226.203 126.789 226.406 126.455 226.181 125.686C225.186 125.622 224.984 125.956 225.573 126.688Z" fill="#032A42"/>
<path fill-rule="evenodd" clip-rule="evenodd" d="M191.159 46.0764C191.854 46.3948 191.588 47.0481 191.576 47.6003C191.934 47.2104 192.657 46.4977 192.363 45.9376C191.909 45.0742 190.723 45.8772 191.159 46.0764Z" fill="#032A42"/>
<path fill-rule="evenodd" clip-rule="evenodd" d="M167.48 35.2087C167.375 35.0015 167.269 34.7944 167.163 34.5872C166.731 34.9343 166.064 35.8522 166.751 36.2995C167.032 35.9575 167.275 35.5939 167.48 35.2087Z" fill="#032A42"/>
<path fill-rule="evenodd" clip-rule="evenodd" d="M175.821 41.3005C176.686 41.9801 176.271 39.8943 176.245 39.724C176.117 39.9686 175.384 40.9573 175.821 41.3005Z" fill="#032A42"/>
<path fill-rule="evenodd" clip-rule="evenodd" d="M175.342 40.2413C175.276 40.069 175.209 39.8967 175.143 39.724C174.793 40.0492 174.363 40.7133 174.942 41.0938C175.101 40.8273 175.234 40.5432 175.342 40.2413Z" fill="#032A42"/>
<path fill-rule="evenodd" clip-rule="evenodd" d="M180.835 47.4039C180.905 47.4693 180.976 47.5346 181.047 47.6003C181.332 47.0237 181.007 46.5906 180.469 46.5729C180.507 46.8966 180.629 47.1736 180.835 47.4039Z" fill="#032A42"/>
<path fill-rule="evenodd" clip-rule="evenodd" d="M157.659 112.266C158.002 112.032 158.314 111.765 158.594 111.466C157.578 110.844 158.187 112.191 156.964 111.364C156.701 111.729 157.131 112.545 157.659 112.266Z" fill="#032A42"/>
<path fill-rule="evenodd" clip-rule="evenodd" d="M200.328 168.827C200.714 168.233 200.784 168.25 200.256 167.799C199.817 168.533 199.862 168.345 200.328 168.827Z" fill="#032A42"/>
<path fill-rule="evenodd" clip-rule="evenodd" d="M119.629 74.3374C119.839 74.5571 120.049 74.7768 120.26 74.9961C120.358 74.7087 120.893 73.8966 120.529 73.6263C120.229 73.8633 119.929 74.1004 119.629 74.3374Z" fill="#032A42"/>
<path fill-rule="evenodd" clip-rule="evenodd" d="M127.105 76.5104C126.77 76.4543 125.967 76.209 125.781 76.5216C126.272 76.9247 127.38 76.5566 127.105 76.5104Z" fill="#032A42"/>
</svg>
