<svg width="350" height="263" viewBox="0 0 350 263" fill="none" xmlns="http://www.w3.org/2000/svg">
<path fill-rule="evenodd" clip-rule="evenodd" d="M179.552 32.4498C178.494 35.2548 177.437 38.0601 176.379 40.8651C175.701 42.6626 175.024 44.4598 174.346 46.2573C174.105 46.8946 173.972 47.5483 173.507 47.9908C172.411 49.0325 170.444 49.6955 169.127 50.4283C168.245 50.9194 167.363 51.4105 166.48 51.9015C166.025 52.155 165.017 52.4731 164.698 52.8936C164.347 53.3569 164.513 54.2079 164.513 54.8487V70.804C169.07 70.2331 173.628 69.6626 178.185 69.0918C172.113 76.1109 166.042 83.1297 159.97 90.1489C158.474 91.8786 156.657 93.5436 155.542 95.5561C153.169 99.8401 150.85 104.155 148.505 108.454C146.321 112.456 144.138 116.457 141.954 120.459L161.597 119.621C166.683 119.405 171.907 119.731 176.807 118.286C180.846 117.096 184.885 115.906 188.925 114.716C189.462 114.557 191.136 114.378 191.516 113.945C191.873 113.539 191.865 112.006 191.966 111.487C193.873 101.669 196.3 90.8495 201.864 82.3982C205.854 76.34 211.237 71.0358 216.167 65.7529C218.091 63.691 220.049 61.6538 221.905 59.5292C222.381 58.9851 223.067 58.3676 223.382 57.7067C223.585 57.2797 223.868 56.466 223.742 56.0869C223.688 55.9226 222.419 55.3329 222.237 55.2158C220.952 54.3881 219.678 53.5429 218.401 52.7018C214.813 50.3383 211.228 47.9689 207.619 45.6368C204.806 43.8184 202 41.8904 199.033 40.3278C195.957 38.7081 192.569 37.568 189.345 36.2883C186.086 34.9949 182.821 33.7162 179.552 32.4498Z" fill="#F0D8B6"/>
<path fill-rule="evenodd" clip-rule="evenodd" d="M290.155 182.3C288.59 183.777 285.74 185.76 283.488 184.858C282.357 184.405 281.39 183.411 280.36 182.77C279.149 182.017 278.011 181.263 276.985 180.259C274.937 178.255 273.387 175.327 270.968 173.759C270.155 173.231 268.569 173.118 268.005 172.276C267.752 171.898 267.728 171.325 267.775 170.889C267.876 169.948 268.383 170.004 267.536 169.314H268.852C268.877 168.804 268.37 168.762 267.992 168.828C268.167 168.021 268.346 164.862 266.878 166.294C265.605 167.535 266.242 169.593 265.341 170.937C264.651 171.966 262.819 171.133 262.572 170.001C262.461 169.492 263.02 168.698 263.087 168.199C263.233 167.093 262.74 166.137 262.024 165.3C260.454 166.348 261.344 168.518 260.449 169.895C259.64 171.141 257.836 170.56 256.604 170.341C255.126 170.078 253.455 170.344 252.041 169.994C249.905 169.466 250.703 166.954 250.492 165.333C250.265 163.597 248.513 161.187 249.04 159.435C249.605 157.554 252.91 157.147 254.49 156.691C258.1 155.647 263.25 155.446 265.934 152.525C268.069 154.911 269.786 157.642 272.025 159.939C274.444 162.419 277.027 164.709 279.349 167.289C281.765 169.975 284.26 172.609 286.588 175.372C287.605 176.577 288.497 177.876 289.548 179.053C290.482 180.099 291.467 181.061 290.155 182.3ZM182.843 135.907C183.953 135.316 184.094 135.687 184.093 136.904C183.774 136.319 183.457 136.163 182.843 135.907ZM173.437 159.572V157.427C174.506 157.398 173.849 159.234 173.437 159.572ZM173.175 162.768C173.175 161.818 173.15 160.913 173.423 159.989C173.567 160.996 173.841 161.868 173.175 162.768ZM177.774 228.046C178.756 228.138 180.27 227.46 181.096 228.232C181.945 229.026 181.877 231.335 182.078 232.407C182.41 234.179 182.704 235.956 182.984 237.736C183.168 238.903 183.395 240.088 182.078 240.535C180.132 241.194 177.351 240.253 175.322 240.167C171.315 239.999 167.309 239.764 163.299 239.682C159.412 239.603 155.515 239.666 151.646 240.071C149.898 240.254 148.189 240.577 146.459 240.869C145.547 241.024 143.103 241.669 142.279 240.899C140.73 239.449 143.306 236.064 144.414 235.108C146.471 233.334 149.396 232.054 151.974 231.284C153.353 230.872 155.65 229.716 156.736 231.009C157.569 232.001 157.535 233.325 158.729 234.077C161.495 235.819 159.876 230.823 158.148 230.208C159.309 227.487 161.52 231.328 162.438 232.251C162.764 232.58 163.826 233.663 164.287 233.118C164.632 232.711 163.943 231.25 163.815 230.853C163.621 230.25 163.13 229.332 163.271 228.678C163.527 227.493 165.184 227.171 166.177 227.072C167.717 226.919 169.227 227.408 170.75 227.572C173.084 227.823 175.437 227.826 177.774 228.046ZM162.314 116.507C159.274 116.75 156.215 116.284 153.183 116.665C150.314 117.026 147.61 118.081 144.906 119.051C148.927 109.602 154.129 101.001 160.469 92.9436C163.627 88.9304 167.023 84.945 170.435 81.1469C172.023 79.3799 173.665 77.6714 175.304 75.9541C176.766 74.4219 177.814 71.82 179.568 70.6759C181.066 69.6992 183.684 70.3958 185.343 70.4564C187.22 70.5249 189.503 70.6958 191.332 70.0701C192.658 69.6167 193.023 68.4068 191.363 68.3668C189.406 68.3192 187.48 68.5236 185.497 68.3397C180.359 67.8641 175.406 67.0823 170.226 67.5257C169.039 67.6271 167.477 68.1336 166.313 67.9815C165.475 67.8716 166.026 68.2935 165.444 67.6202C165.221 67.3627 164.952 66.7573 164.887 66.4152C164.516 64.4937 165.569 61.7479 165.821 59.8135C166.054 58.0231 165.847 56.0554 166.283 54.312C166.681 52.7255 167.891 52.5138 169.382 52.3443C173.461 51.8803 177.623 51.6334 181.72 51.2838C191.071 50.4859 200.718 49.2822 210.004 51.254C213.358 51.9659 217.447 53.0669 220.442 54.8298C221.379 55.3808 222.324 56.0298 221.983 57.1715C221.63 58.3567 219.897 59.6087 219.039 60.3895C212.695 66.159 206.569 72.044 202.113 79.447C196.43 88.8873 193.169 99.083 191.255 109.901C190.844 112.228 190.462 113.446 188.072 114.116C185.506 114.835 183.03 115.303 180.37 115.522C174.356 116.016 168.324 116.027 162.314 116.507ZM164.351 53.9898C163.89 57.4263 163.266 60.8552 163.205 64.3187C163.181 65.6269 163.058 66.2823 161.669 66.5741C160.032 66.9179 158.368 67.174 156.724 67.5309C148.788 69.2541 141.001 71.3704 133.237 73.7525C125.691 76.0681 118.27 78.6731 110.554 80.3884C107.235 81.1264 103.352 81.6236 100.329 83.2574C97.0771 85.0156 97.505 87.8979 97.2131 91.0639C96.8231 95.2938 95.5711 99.3895 95.1309 103.618C94.9203 105.638 94.7286 107.671 94.7604 109.704C94.7874 111.437 95.0352 113.353 93.8724 114.812C91.5396 111.687 90.4339 107.757 89.9742 103.928C89.7507 102.066 89.8392 100.189 89.7753 98.3193C89.7237 96.8136 89.7572 94.4185 88.7783 93.161C86.6502 90.4283 83.8827 101.38 83.6195 102.549C83.1769 104.518 82.8118 106.502 82.3709 108.471C82.1754 109.344 81.9245 112.516 80.7577 112.832C78.3394 113.487 78.8702 106.679 78.832 105.643C78.7554 103.55 78.7034 101.455 78.7523 99.3614C78.7879 97.8498 79.0798 96.2095 78.9065 94.6973C78.4809 90.9841 76.397 94.8962 75.8112 96.2783C74.3308 99.7675 73.6613 103.502 72.3337 107.047C72.1129 107.637 71.5941 109.622 70.772 109.659C69.8574 109.7 69.8646 107.65 69.8123 107.051C69.5088 103.579 68.4837 100.131 68.793 96.6228C69.1054 93.0806 70.3448 89.439 72.0986 86.358C75.8064 79.8439 82.5022 76.1037 88.9157 72.6967C96.2554 68.7983 104.004 65.7183 111.919 63.2092C121.437 60.1915 131.21 57.7499 141.042 56.0123C146.045 55.1284 151.124 54.4963 156.178 53.9894C157.954 53.8114 159.73 53.7073 161.483 53.3686C162.145 53.2405 164.532 52.632 164.351 53.9898ZM169.464 42.8688C166.956 42.8887 164.394 41.6706 161.951 41.1672C159.042 40.5672 156.201 39.6991 153.298 39.0728C147.612 37.8465 141.923 36.6506 136.243 35.3973C133.776 34.8531 131.298 34.3795 128.842 33.795C126.214 33.1696 123.375 32.4724 120.685 33.146C116.607 34.1672 114.885 38.6365 113.388 42.1243C112.33 44.5879 111.502 47.334 109.853 49.4777C109.266 50.242 108.431 51.1536 107.366 50.906C105.388 50.4465 105.702 47.824 105.954 46.3744C106.319 44.2708 106.836 42.1918 107.25 40.0977C107.417 39.2525 108.71 33.721 106.402 34.5774C104.69 35.2127 103.784 39.3967 103.136 40.8912C102.655 42.0017 102.144 43.1051 101.604 44.1882C100.883 45.633 98.825 50.4605 96.547 49.8379C93.2869 48.9469 96.414 40.36 96.9694 38.5502C97.2743 37.5567 100.588 30.0225 97.7911 30.6383C96.5999 30.9009 95.4395 33.1176 94.8322 34.0364C93.7552 35.6661 92.6816 37.3074 91.6678 38.9772C90.625 40.6946 90.0925 42.6493 89.0582 44.3417C88.514 45.2324 87.4035 46.4193 86.3194 45.5947C84.6292 44.3102 85.631 39.8419 85.927 38.1523C86.4776 35.011 87.8455 31.7906 89.7223 29.2226C92.5425 25.3639 97.8639 24.117 102.339 23.3674C108.115 22.3997 113.971 22.6644 119.771 23.2369C126.295 23.8811 132.718 24.5708 139.148 25.8878C145.628 27.2152 152.112 28.5319 158.492 30.2873C161.498 31.1143 164.547 31.8475 167.51 32.8183C170.66 33.8501 173.734 35.1343 176.972 35.8777C175.833 38.7252 174.694 41.5726 173.555 44.4204C172.465 43.34 170.977 42.8565 169.464 42.8688ZM225.287 50.7153C226.286 50.1681 227.389 49.9099 227.753 48.7003C228.076 47.6316 227.525 46.4207 227.262 45.3947C226.525 42.5222 226.332 39.5467 226.983 36.6404C227.606 37.5927 229.937 41.2559 231.355 39.0382C232.21 37.7006 229.918 35.7764 229.25 34.836C230.717 33.9285 232.814 31.493 234.505 32.9618C235.598 33.9114 236.061 34.8257 237.533 35.2873C239.321 35.8479 241.005 35.7195 242.831 35.5647C244.109 35.4565 244.417 35.2856 244.916 36.2719C245.308 37.0472 245.511 38.0067 245.74 38.8392C246.191 40.4806 247.236 43.7146 245.999 45.2522C244.915 46.5991 240.709 45.4443 240.125 47.183C239.806 48.1312 241.326 48.1651 241.907 48.6342C242.627 49.215 243.222 50.1393 243.613 50.9649C243.902 51.5755 244.343 52.5844 243.85 53.2087C243.169 54.0723 241.907 53.4172 241.358 52.7895C240.629 51.9557 240.393 50.8156 239.785 49.9075C238.669 48.2411 238.602 49.5667 238.298 50.7632C237.983 52.0063 237.236 51.9207 236.093 52.0803C234.087 52.3608 232.06 52.7563 230.107 53.295C229.106 53.571 228.136 53.9227 227.183 54.3336C226.569 54.598 225.504 55.399 224.838 55.4066C223.603 55.4205 222.747 53.3511 222.109 52.4878C223.168 51.8957 224.223 51.2981 225.287 50.7153ZM291.605 177.429C288.521 173.72 285.85 169.69 282.807 165.948C279.805 162.257 276.333 159.03 272.965 155.688C271.375 154.11 269.852 152.379 268.097 150.981C266.788 149.938 265.781 149.922 264.206 150.384C259.732 151.697 255.176 153.277 250.942 155.237C246.999 157.061 243.408 159.404 239.132 160.421C234.768 161.46 230.23 161.793 225.757 161.536C221.169 161.272 216.841 160.315 212.478 158.91C208.345 157.578 204.037 156.416 200.502 153.777C196.797 151.01 193.935 147.032 191.282 143.289C189.94 141.395 188.607 139.405 187.702 137.258C186.917 135.395 186.404 133.196 184.995 131.677C184.649 132.168 184.219 132.588 184.044 133.165C183.964 133.427 184.435 133.419 184.386 133.627C184.295 134.019 183.774 134.419 183.471 134.632C182.383 135.399 182.377 134.789 182.662 136.223C182.828 137.059 182.514 138.946 181.153 138.33C181.654 138.931 180.858 139.689 180.598 140.184C180.419 139.978 180.197 139.907 179.931 139.969C180.428 140.962 180.134 140.988 179.652 141.777C179.564 141.921 179.252 142.676 179.297 142.612C178.804 143.315 178.234 143.492 177.947 144.368C177.711 145.088 177.771 145.879 177.508 146.597C177.19 146.157 176.872 145.716 176.553 145.275C176.618 145.622 176.748 146.135 176.899 146.449C176.994 146.646 177.402 147.105 177.396 147.212C177.374 147.613 176.875 147.516 176.733 147.862C176.466 148.51 176.852 148.606 176.706 149.238C176.539 149.964 176.092 149.674 175.879 150.293C175.838 150.41 176.153 150.872 176.103 151.126C176.033 151.484 175.709 151.684 175.594 152.003C175.303 152.813 175.409 153.406 175.005 154.183C174.848 154.485 174.62 154.685 174.51 155.028C174.413 155.329 174.621 155.97 174.435 156.24C173.533 157.541 173.66 155.3 173.728 154.744C174.302 150.078 176.143 145.262 177.828 140.9C178.666 138.733 179.481 136.498 180.531 134.423C180.953 133.587 181.441 132.724 182.139 132.085C183.022 131.276 184.275 130.952 185.075 130.049C184.949 130.191 185.942 129.25 185.783 129.559C185.925 129.282 185.677 128.908 185.766 128.64C185.875 128.307 186.083 128.238 186.314 127.947C186.729 127.424 187.222 127.164 186.57 126.498C187.538 126.284 188.001 125.969 188.194 124.93C188.335 124.17 188.05 124.22 188.548 123.714C189.047 123.205 189.3 123.602 189.615 122.721C189.991 121.666 190.241 120.233 190.467 119.129C190.664 118.166 190.186 116.749 190.996 116.069C192.023 115.208 192.941 115.573 192.757 113.84C192.578 112.152 193.102 111.129 193.628 109.531C194.678 106.341 195.084 102.973 196.005 99.7453C197.971 92.8566 201.443 86.6456 205.177 80.5819C208.627 74.9788 213.45 70.205 218.108 65.6077C219.383 64.3485 220.645 63.0712 221.79 61.6908C222.776 60.5021 223.226 58.8837 224.175 57.7553C224.751 57.0701 225.823 56.777 226.627 56.4136C227.968 55.8075 229.566 55.0168 231.08 55.1394C230.479 57.1711 230.283 59.5453 232.058 61.0689C234.211 62.9171 236.163 60.997 238.138 59.9432C241.736 58.0225 246.883 59.7857 250.02 56.9068C250.768 56.2212 250.976 55.1257 251.753 54.4853C252.323 54.0158 253.134 53.8966 253.776 53.5467C255.726 52.4834 256.672 50.5369 255.913 48.3867C255.219 46.421 254.141 45.7392 256.541 44.743C258.489 43.9348 259.23 42.7171 258.348 40.549C257.507 38.482 255.967 38.244 254.51 36.8914C253.098 35.5812 254.72 34.0562 255.777 33.0727C257.141 31.804 257.402 30.6605 255.821 29.3411C254.165 27.9596 251.801 28.0079 249.871 28.6911C247.689 29.4633 246.251 30.7472 245.327 32.8275C244.386 34.9456 242.055 34.3545 240.167 33.7641C238.361 33.1998 237.891 31.982 236.706 30.6708C235.387 29.2123 232.699 30.4595 231.144 31.1259C227.313 32.7662 223.506 35.3551 223.354 39.9409C223.264 42.6753 224.418 44.9995 225.018 47.5662C225.567 49.9133 221.804 49.7284 221.152 51.9988C214.199 48.3113 206.457 47.183 198.685 46.9319C190.425 46.6648 182.045 46.4508 173.856 47.7562C175.757 44.4379 176.761 40.799 178.414 37.39C178.891 36.4085 179.096 36.4924 180.146 36.789C182.165 37.3585 184.168 37.9958 186.182 38.5824C193.54 40.7254 200.754 43.3075 207.869 46.1354C208.56 46.4104 210.104 47.1737 210.71 46.3436C211.41 45.3865 209.792 44.2064 209.137 43.7249C206.272 41.6192 202.722 40.3412 199.513 38.8639C192.499 35.6349 184.731 34.1021 177.412 31.704C161.611 26.5258 145.264 22.5931 128.843 19.9957C124.836 19.3618 120.786 19.269 116.762 18.7985C113.197 18.3817 109.625 18.3913 106.061 18.8218C99.4768 19.6173 91.8442 21.3336 88.1258 27.3717C84.769 32.8234 82.5282 38.9529 83.3847 45.4197C83.6421 47.3621 84.4631 49.6623 86.8553 49.1616C88.5147 48.8144 89.3959 47.4018 90.1663 46.0231C91.3305 43.9403 92.4803 41.8575 93.7418 39.8306C94.2097 42.8698 92.5093 45.8584 92.7766 48.9544C92.9584 51.0554 94.1171 54.3747 96.8395 53.7799C100.571 52.9648 102.107 47.1244 103.901 44.3225C103.992 46.4806 103.237 48.6075 103.468 50.7704C103.696 52.907 105.362 54.924 107.702 54.6312C109.91 54.3552 111.344 51.9858 112.282 50.202C113.586 47.7196 114.523 45.0581 115.798 42.5592C116.992 40.2169 118.407 37.4283 121.258 36.9883C123.803 36.5951 126.719 37.505 129.232 37.8804C136.205 38.9214 143.036 40.6939 149.933 42.126C157.327 43.6612 164.895 44.5937 172.062 47.071C169.542 50.5071 162.948 49.7647 159.194 50.1335C153.522 50.691 147.776 51.1105 142.136 51.933C136.566 52.7453 131.111 54.1874 125.584 55.2342C120.086 56.2756 114.598 57.3187 109.278 59.0947C99.3999 62.3921 89.3576 66.5652 80.6548 72.3186C76.6055 74.9959 73.0084 78.0557 70.5072 82.2815C67.9898 86.5336 66.7802 91.342 66.3188 96.2331C66.0317 99.2789 66.5194 101.915 67.1083 104.879C67.5349 107.025 67.673 110.618 69.3905 112.19C72.6687 115.189 75.3904 103.023 75.9957 101.553C76.4315 103.961 75.7189 117.528 80.9788 116.425C83.3262 115.932 83.8588 112.704 84.2481 110.76C84.9583 107.215 85.5944 103.599 86.8092 100.185C87.5888 104.785 87.9138 109.577 89.5934 113.971C90.7091 116.888 93.8922 122.065 96.1115 117.07C97.7761 113.324 97.2049 109.025 97.4045 105.048C97.6257 100.64 98.8886 96.3893 99.3357 92.0251C99.509 90.3345 99.3521 88.4291 101.048 87.5065C102.503 86.7148 104.632 86.4569 106.222 86.0148C110.929 84.7053 115.667 83.5016 120.353 82.1123C125.04 80.722 129.663 79.0977 134.287 77.5125C138.711 75.9965 143.227 75.1346 147.704 73.8364C150.249 73.098 152.764 72.3258 155.345 71.7094C156.546 71.4228 157.761 71.1995 158.96 70.9026C159.848 70.6828 161.018 69.853 161.932 69.8677C162.872 69.8831 163.225 70.6804 164.303 70.743C165.463 70.8101 166.643 70.5537 167.797 70.465C170.608 70.2489 173.597 69.8996 176.401 70.29C174.716 72.2933 172.439 73.6781 170.443 75.3377C168.142 77.2516 165.915 79.3183 163.949 81.5784C159.994 86.1261 156.256 90.9331 152.783 95.8599C149.357 100.72 146.599 106.039 144.201 111.473C143.006 114.18 141.846 116.947 141.02 119.794C140.681 120.963 140.404 122.136 139.792 123.2C139.231 124.175 138.439 125.016 139.103 126.193C139.56 125.907 139.971 125.55 140.384 125.206C139.906 128.576 138.876 131.836 138.346 135.196C137.824 138.506 137.845 141.911 137.879 145.254C137.95 152.255 138.469 159.097 139.887 165.964C141.32 172.908 143.162 179.799 145.484 186.498C147.719 192.947 149.963 199.711 153.083 205.79C156.415 212.283 160.38 219.109 165.204 224.605C162.053 225.898 158.043 225.656 154.706 226.177C151.218 226.722 148.201 227.749 145.229 229.683C142.222 231.639 140.59 234.158 140.174 237.726C139.879 240.265 139.001 243.781 142.326 244.448C144.718 244.928 147.391 244.14 149.788 243.945C153.979 243.605 158.177 243.392 162.378 243.208C166.568 243.025 170.76 242.864 174.951 242.734C176.923 242.672 178.895 242.642 180.866 242.571C181.749 242.539 182.285 242.526 183.077 242.781C183.703 242.984 183.657 243.404 184.354 242.884C185.479 242.046 185.247 239.404 185.216 238.243C185.168 236.45 184.999 234.637 184.65 232.878C184.442 231.833 181.928 225.096 183.883 224.812C181.612 222.312 180.705 218.741 179.685 215.607C178.406 211.681 177.284 207.765 176.403 203.727C174.522 195.1 173.69 186.379 173.69 177.553C182.412 182.939 191.64 185.857 201.913 186.182C212.127 186.505 223.348 185.665 233.046 182.261C237.537 180.684 241.56 178.614 245.411 175.825C246.791 174.825 248.27 172.561 250.081 172.599C252.243 172.646 254.664 173.466 256.811 173.816C260.917 174.487 266.275 174.865 269.751 177.41C271.64 178.792 272.993 180.726 274.678 182.319C275.96 183.53 277.655 184.188 278.927 185.4C280.299 186.707 279.754 188.415 282.03 188.52C283.976 188.611 286.109 187.826 287.787 186.906C291.134 185.069 294.699 181.149 291.605 177.429Z" fill="#032A42"/>
<path fill-rule="evenodd" clip-rule="evenodd" d="M259.43 90.0746C264.329 93.561 269.948 95.9427 275.067 99.0826C276.349 99.8686 280.341 101.5 280.302 102.958C280.28 103.81 279.08 104.879 278.555 105.47C277.655 106.482 276.808 107.504 275.977 108.575C272.176 113.477 268.596 118.425 264.476 123.081C263.856 123.782 261.987 127.126 261.384 125.465C261.11 124.712 261.336 123.866 260.623 123.164C260.256 122.802 258.839 122.603 259.252 121.827C259.527 121.951 259.802 122.075 260.078 122.199C259.864 121.579 259.88 120.9 259.559 120.314C259.36 119.95 258.97 119.778 258.835 119.368C258.649 118.801 258.965 118.143 258.912 117.559C258.86 116.977 258.559 116.427 258.379 115.878C257.313 112.622 256.93 109.339 256.385 105.98C255.845 102.656 255.003 99.4357 254.673 96.0746C254.324 92.5244 253.897 88.9815 253.326 85.4597C254.344 85.6029 255.127 86.7114 255.847 87.3381C256.979 88.3229 258.208 89.2054 259.43 90.0746ZM255.589 124.445C255.355 124.261 255.173 124.035 255.041 123.767C257.442 122.576 255.993 124.609 255.589 124.445ZM254.129 121.903C253.083 122.192 252.331 122.251 251.524 121.819C251.447 121.779 251.535 121.463 251.397 121.399C251.276 121.342 251.092 121.412 250.989 121.359C250.638 121.18 250.022 121.573 249.963 120.887C251.298 120.477 252.612 119.722 254.022 119.594C255.982 119.418 255.891 121.416 254.129 121.903ZM249.544 117.952C248.116 118.286 246.939 119.068 245.422 118.863C243.998 118.672 242.76 117.932 241.636 117.08C244.447 116.282 247.394 116.139 250.203 115.367C251.117 115.116 252.318 114.454 253.304 114.721C254.398 115.018 254.467 116.045 254.796 116.98C253.044 117.296 251.278 117.545 249.544 117.952ZM240.612 113.985C239.24 114.313 237.838 115.031 236.691 113.792C236.505 113.592 236.343 113.791 236.365 113.175C236.388 112.526 236.977 112.107 237.483 111.879C238.673 111.341 240.341 111.688 241.605 111.609C243.622 111.484 245.674 111.064 247.668 110.741C249.049 110.517 250.475 110.02 251.887 110.118C252.976 110.194 254.291 111.124 252.703 111.803C251.257 112.422 249.088 112.327 247.521 112.595C245.205 112.99 242.898 113.437 240.612 113.985ZM239.272 107.518C239.361 107.609 239.45 107.699 239.538 107.79C239.524 107.787 240.065 107.348 240.208 107.335C240.903 107.275 241.603 107.323 242.3 107.283C243.905 107.193 245.522 106.912 247.099 106.604C248.383 106.352 249.691 105.919 251.013 106.028C252.157 106.122 252.277 106.357 252.352 107.463C249.431 107.463 246.422 107.401 243.552 108.021C241.683 108.424 239.623 109.625 238.687 107.46C238.882 107.479 239.077 107.499 239.272 107.518ZM241.098 102.833C241.822 103.386 243.797 102.467 244.665 102.375C245.608 102.275 246.495 102.172 247.408 101.936C248.218 101.727 250.898 100.684 251.52 101.682C252.472 103.21 248.615 103.491 248.004 103.566C245.439 103.884 242.778 104.165 240.283 104.839C240.555 104.171 240.826 103.502 241.098 102.833ZM244.616 97.6423C244.803 98.3488 250.603 95.7455 250.708 97.6375C250.79 99.0892 244.97 99.8124 243.924 99.685C244.169 99.0165 244.821 98.418 244.616 97.6423ZM246.563 93.2018C246.686 91.7769 246.877 91.7851 248.018 91.6508C248.888 91.5485 250.083 91.0375 249.857 92.5909C249.663 93.9209 246.439 94.6397 246.563 93.2018ZM248.636 88.299C248.911 87.5339 249.528 88.5637 249.541 88.9527C249.576 89.9879 248.792 89.764 248.038 89.764C248.248 89.2804 248.448 88.7914 248.636 88.299ZM258.181 82.5565C258.028 82.3708 257.164 82.3 256.919 82.2099C256.314 81.988 256.4 81.5151 255.627 81.9815C255.588 81.9424 255.662 81.5918 255.62 81.5757C255.599 81.5675 255.057 81.3627 254.881 81.2497C254.456 80.9771 254.073 80.7103 253.683 80.3682C253.268 80.0049 252.852 79.4775 252.378 79.1881C252.178 79.0662 252.015 78.8933 251.774 78.856C251.149 78.7594 251.328 79.1957 250.781 79.2823C250.445 79.3357 250.199 78.9419 249.759 79.1118C249.379 79.2583 249.158 79.7929 248.988 80.111C248.372 81.2689 247.897 82.515 247.294 83.6852C244.208 89.6688 240.702 95.4253 237.714 101.465C236.274 104.374 234.772 107.304 233.759 110.396C233.029 112.626 231.379 115.883 232.799 118.112C233.83 119.732 235.897 120.432 237.545 121.214C240.026 122.392 242.312 123.932 244.82 125.074C247.81 126.436 250.714 127.861 253.629 129.381C254.872 130.03 255.994 130.964 257.233 131.579C257.991 131.954 259.161 131.313 259.408 132.174C260.358 131.022 261.895 131.79 262.994 130.979C263.64 130.501 264.113 129.561 264.652 128.973C265.46 128.091 266.338 127.274 267.163 126.408C270.438 122.968 273.462 119.385 276.441 115.69C279.287 112.162 282.612 108.829 285.016 104.967C285.97 103.433 286.143 101.826 285.513 100.132C285.053 98.8964 283.945 97.0307 282.362 97.8488C282.962 96.8502 280.647 95.7838 279.945 95.5887C279.934 95.5859 279.796 96.353 279.6 96.3338C279.67 96.3407 279.011 94.6343 278.722 94.4154C277.863 93.7644 276.819 93.0049 275.882 92.469C275.023 91.9775 274.116 91.7341 273.284 91.1841C272.275 90.5177 271.349 89.7273 270.336 89.0654C269.358 88.4264 268.268 87.6709 267.187 87.2316C266.25 86.8504 265.408 86.7758 264.565 86.1511C263.522 85.3782 262.612 84.8539 261.409 84.3214C260.368 83.8608 258.926 83.4585 258.181 82.5565Z" fill="#032A42"/>
<path fill-rule="evenodd" clip-rule="evenodd" d="M116.111 175.1C116.303 174.65 116.493 174.2 116.685 173.75C116.921 174.535 116.988 174.925 116.111 175.1ZM116.366 177.18C115.951 177.255 116.115 175.952 116.115 175.725C116.831 176.131 116.238 176.618 116.366 177.18ZM115.72 173.421C116.073 173.212 116.426 173.003 116.78 172.794C116.288 173.708 116.481 173.137 116.684 173.747C116.313 173.854 115.952 173.729 115.72 173.421ZM113.625 180.562C112.3 185.378 108.092 189.176 103.648 191.143C101.094 192.274 98.5833 192.556 95.8254 192.43C94.7617 192.382 93.51 192.036 92.4863 192.1C91.6982 192.15 91.7337 192.184 91.0809 192.852C90.7921 192.319 91.0012 191.945 90.4219 191.635C89.699 191.248 89.3989 191.699 89.0403 192.235C88.5711 191.748 88.379 191.493 87.7709 191.204C87.79 191.213 87.1888 191.19 87.2134 191.198C87.1047 191.164 86.4509 190.743 86.2462 190.666C85.406 190.35 84.4346 190.221 83.6594 189.768C82.9813 189.372 82.4228 188.261 81.6469 189.115C81.6462 187.689 79.7291 187.097 78.8305 186.351C77.4264 185.184 76.3101 183.456 75.6101 181.784C74.8636 180.002 74.6145 178.293 74.2651 176.456C74.0211 175.172 72.4229 173.317 73.3826 172.022C73.6113 172.565 73.504 173.121 73.8837 173.614C74.2255 172.954 74.4135 172.215 74.568 171.493C74.6439 171.139 75.0834 170.101 75.0335 169.793C74.932 169.162 74.1527 169.128 74.5847 168.355C75.4809 169.332 76.2042 167.616 75.5271 166.932C75.1928 167.31 75.0701 167.739 74.9159 168.207C74.0348 166.425 76.4735 166.998 75.9399 165.39C76.83 165.218 77.3417 164.993 77.68 164.112C78.0564 163.132 77.7795 162.918 78.634 162.27C78.9279 162.048 79.7592 161.728 79.9113 161.361C80.2056 160.653 79.4567 160.443 80.1126 159.78C80.3341 160.169 81.1975 160.94 81.6702 160.207C81.7649 160.061 81.3673 159.957 81.6565 159.62C82.0848 159.121 82.564 158.632 83.2882 158.737C82.7147 157.3 86.3795 157.187 87.318 156.848C88.2587 156.508 89.0567 156.285 90.0541 156.207C91.0504 156.128 91.1 155.835 91.9436 155.234C92.015 156.094 92.2215 155.905 92.8316 156.057C92.9782 155.805 93.1286 155.776 93.2824 155.972C93.4355 156.118 93.6228 156.186 93.8436 156.178C94.1786 156.196 94.5587 156.152 94.9097 156.159C95.7337 156.175 96.5838 156.106 97.3922 156.124C97.6006 156.089 97.7955 156.016 97.978 155.906C98.0542 156.049 98.1308 156.194 98.2066 156.338C98.6349 156.392 98.6681 156.929 99.1948 156.341C99.3506 157.089 99.7984 156.7 100.271 156.902C100.703 157.088 100.771 157.384 101.17 157.59C101.432 157.803 101.712 157.831 102.012 157.675C102.298 157.887 102.587 158.093 102.881 158.292C103.423 158.599 104.062 158.787 104.632 159.029C105.012 159.186 105.39 159.349 105.764 159.518C105.775 159.971 105.978 160.131 106.371 159.997C106.727 160.296 106.827 160.284 107.173 160.792C107.955 161.943 108.649 162.837 109.636 163.866C113.93 168.338 115.249 174.661 113.625 180.562ZM114.943 161.545C113.004 158.944 110.261 155.966 107.795 154.324C106.546 153.491 104.792 151.996 103.264 151.556C102.901 151.451 102.526 151.445 102.17 151.335C101.895 151.25 101.745 150.967 101.432 150.916C101.212 150.881 101.188 151.373 100.955 151.328C100.467 151.233 100.158 150.748 99.8141 150.445C99.0748 151.721 98.6735 149.575 97.588 151.018C96.296 148.988 93.2608 149.432 91.1978 149.534C90.5859 149.564 90.2985 149.783 89.7561 149.944C89.2512 150.095 89.2013 150.056 88.65 150.052C87.277 150.041 86.0582 150.214 84.7891 150.818C82.6569 151.833 80.6998 153.414 78.6747 154.637C76.4113 156.004 74.3711 157.743 72.6396 159.742C66.3799 166.97 64.7061 177.52 69.6974 185.899C77.6254 199.206 98.0754 200.629 109.663 191.599C118.616 184.622 122.023 171.042 114.943 161.545Z" fill="#032A42"/>
<path fill-rule="evenodd" clip-rule="evenodd" d="M213.069 124.096C212.846 124.627 210.769 124.448 210.723 123.821C210.655 122.884 213.455 123.171 213.069 124.096ZM215.276 123.748C216.453 123.843 218.388 124.645 219.523 124.161C221.255 123.422 219.436 122.287 218.507 121.948C217.561 121.604 216.153 121.787 215.667 120.796C215.301 120.052 216.205 117.972 215.084 118.306C213.908 118.657 214.25 121.636 212.404 120.632C211.523 120.153 211.882 117.234 210.408 118.725C210.004 119.133 209.969 119.882 209.434 120.186C208.889 120.497 208.204 120.173 207.628 120.2C206.104 120.272 205.618 121.701 207.163 122.268C207.735 122.477 209.89 122.734 208.584 123.67C207.762 124.26 205.934 123.022 205.228 124.049C204.257 125.459 206.858 125.491 207.556 125.913C208.74 126.627 207.762 128.296 207.857 129.484C208.001 131.3 209.054 130.92 209.437 129.384C209.761 128.08 209.359 126.203 211.321 126.721C214.515 127.565 209.544 131.628 211.884 132.668C213.376 133.331 213.587 129.747 213.703 129.13C214.132 126.853 215.409 127.384 217.344 127.454C219.604 127.535 220.149 125.86 217.756 125.381C216.992 125.228 215.942 125.421 215.279 124.934C214.887 124.646 214.347 123.672 215.276 123.748Z" fill="#032A42"/>
<path fill-rule="evenodd" clip-rule="evenodd" d="M131.835 198.16C130.006 197.503 126.946 197.645 126.493 200.012C126.304 201.002 126.673 202.05 127.356 202.77C128.148 203.605 129.409 203.682 129.342 202.229C129.295 201.223 128.339 200.349 130.019 200.147C131.064 200.021 132.61 200.804 132.662 201.961C132.78 204.568 128.275 204.773 126.615 204.322C123.32 203.427 124.215 199.969 126.478 198.391C127.062 197.983 128.739 197.355 128.816 196.509C128.918 195.385 127.531 195.615 126.852 195.763C121.857 196.852 120.769 205.235 125.988 206.816C128.358 207.533 131.695 206.792 133.124 204.642C134.463 202.625 134.481 199.109 131.835 198.16Z" fill="#032A42"/>
<path fill-rule="evenodd" clip-rule="evenodd" d="M65.6102 138.815C64.0489 139.568 62.4875 140.321 60.9266 141.074C60.4104 139.967 59.5385 136.945 58.2294 136.559C56.1103 135.934 57.4597 139.229 57.8254 139.982C58.1259 140.601 58.8228 141.56 58.6536 142.297C58.4267 143.291 57.0273 143.643 56.2949 144.156C54.4823 145.425 54.4967 148.09 57.1217 146.961C58.6071 146.321 60.4463 144.549 61.5849 146.562C62.1105 147.49 63.356 152.679 64.6569 149.286C65.4619 147.185 61.5876 145.002 63.4976 143.225C64.1124 142.653 64.8323 142.605 65.4465 142.276C66.9299 141.482 66.0935 140.014 65.6102 138.815Z" fill="#032A42"/>
<path fill-rule="evenodd" clip-rule="evenodd" d="M294.507 63.6338C293.576 63.2927 292.425 62.6267 291.39 62.8537C290.291 63.0948 289.848 64.1982 289.048 64.8615C286.875 66.6652 285.609 63.9769 284.415 62.5037C283.287 61.1127 281.911 60.7751 280.319 61.6298C279.685 61.9705 277.014 63.5318 277.48 64.532C277.815 65.2519 279.135 64.6057 279.585 64.4485C280.562 64.1077 281.469 63.8095 282.469 64.3064C284.344 65.2378 284.83 67.7922 287.098 68.1904C289.444 68.6024 289.521 66.3662 291.194 65.5245C292.316 64.9604 293.098 65.959 294.181 65.7601C295.212 65.5707 295.689 64.0667 294.507 63.6338Z" fill="#032A42"/>
<path fill-rule="evenodd" clip-rule="evenodd" d="M275.572 72.646C276.401 72.8265 276.943 71.2146 277.462 70.8057C278.323 70.128 279.816 69.9914 280.693 70.6735C282.406 72.0049 281.816 74.8795 284.255 75.6287C286.434 76.2986 287.461 73.4223 289.296 72.7063C290.363 72.2899 291.534 72.0173 291.117 70.5232C290.83 69.49 289.983 69.2246 289.062 69.6215C287.479 70.303 286.942 73.0792 285.066 73.1289C283.125 73.1802 282.914 70.3766 282.081 69.1554C280.811 67.2942 278.199 66.8446 276.715 68.6243C276.267 69.1613 273.992 72.3032 275.572 72.646Z" fill="#032A42"/>
<path fill-rule="evenodd" clip-rule="evenodd" d="M237.203 40.8632C238.356 41.6543 240.656 41.6269 241.719 40.6458C242.801 39.6475 241.357 39.4941 240.476 39.5246C239.798 39.5482 238.529 39.8848 238.915 38.712C239.258 37.6713 241.142 38.201 241.3 37.0586C239.882 36.8038 238.32 36.8956 237.271 38.0123C236.512 38.8195 236.122 40.1225 237.203 40.8632Z" fill="#032A42"/>
</svg>
