<svg width="300" height="300" viewBox="0 0 300 300" fill="none" xmlns="http://www.w3.org/2000/svg">
<path d="M145.135 197.024H76.1722C73.0785 192.402 69.2974 181.401 67.7935 176.479H121.933V162.996H64.5709C58.8992 138.856 69.9419 113.987 76.1722 105.213H145.135V124.474H89.0625L85.8399 132.179L83.9064 139.241H145.135V197.024Z" fill="#F0F0DC"/>
<path d="M180.584 105.213H156.737V197.024H180.584L199.275 178.405L219.255 197.024H225.055C245.68 165.693 238.59 127.684 225.055 105.213H201.208C223.122 135.389 217.321 148.872 217.321 161.712L199.275 144.377L180.584 161.712V105.213Z" fill="#F0F0DC"/>
<path d="M116.132 93.6563H85.8399C112.873 64.3593 143.416 59.0176 169.627 65.4011C188.909 70.0971 205.848 81.1385 217.321 93.6563H185.74C154.287 74.652 126.23 85.7378 116.132 93.6563Z" fill="#F0F0DC"/>
<path d="M117.421 208.581H85.8399C138.69 261.228 194.118 231.694 217.321 208.581H216.032H185.74C152.741 226.044 126.444 215.857 117.421 208.581Z" fill="#F0F0DC"/>
<path d="M145.135 197.024H76.1722C73.0785 192.402 69.2974 181.401 67.7935 176.479H121.933V162.996H64.5709C58.8992 138.856 69.9419 113.987 76.1722 105.213H145.135V124.474H89.0625L85.8399 132.179L83.9064 139.241H145.135V197.024Z" stroke="#F0F0DC"/>
<path d="M180.584 105.213H156.737V197.024H180.584L199.275 178.405L219.255 197.024H225.055C245.68 165.693 238.59 127.684 225.055 105.213H201.208C223.122 135.389 217.321 148.872 217.321 161.712L199.275 144.377L180.584 161.712V105.213Z" stroke="#F0F0DC"/>
<path d="M116.132 93.6563H85.8399C112.873 64.3593 143.416 59.0176 169.627 65.4011C188.909 70.0971 205.848 81.1385 217.321 93.6563H185.74C154.287 74.652 126.23 85.7378 116.132 93.6563Z" stroke="#F0F0DC"/>
<path d="M117.421 208.581H85.8399C138.69 261.228 194.118 231.694 217.321 208.581H216.032H185.74C152.741 226.044 126.444 215.857 117.421 208.581Z" stroke="#F0F0DC"/>
</svg>
